<svg width="132" height="150" viewBox="0 0 132 150" fill="none" xmlns="http://www.w3.org/2000/svg">
<path d="M94.0974 126.491C98.332 127.78 102.096 123.943 102.766 119.626C103.437 115.309 99.7775 110.319 93.0685 108.645C86.3596 106.971 78.4084 113.293 77.0636 121.949C75.1473 134.284 85.8265 142.892 95.1264 144.336C113.066 147.123 122.885 132.858 126.134 120.098C130.664 102.313 119.555 84.9671 104.716 74.4506C92.9645 66.1218 79.4132 57.8869 68.9571 43.6297C58.5011 29.3725 51.0069 4.20587 32.5878 4.50265C14.1687 4.79944 6.21185 23.1442 5.71009 38.8573C5.3001 51.6962 16.9598 68.3972 16.9598 68.3972C16.9598 68.3972 1.76505 80.5644 4.93723 96.8483C8.1094 113.132 30.3797 116.592 30.3797 116.592C30.3797 116.592 29.9411 131.65 43.5894 137.593C57.2377 143.537 65.4848 135.31 65.4848 135.31" stroke="#FFFEFA" stroke-width="9" stroke-linecap="round" stroke-linejoin="round"/>
</svg>
