<svg width="80" height="84" viewBox="0 0 80 84" fill="none" xmlns="http://www.w3.org/2000/svg">
<g filter="url(#filter0_d_1_131)">
<path d="M33.5 63.5L33.5 27.5L67.5 12.5V52.5M67.5 22.5L33.5 37.5M33.5 64.5C33.5 68.366 28.799 71.5 23 71.5C17.201 71.5 12.5 68.366 12.5 64.5C12.5 60.634 17.201 57.5 23 57.5C28.799 57.5 33.5 60.634 33.5 64.5ZM67.5 53C67.5 57.1421 62.5751 60.5 56.5 60.5C50.4249 60.5 45.5 57.1421 45.5 53C45.5 48.8579 50.4249 45.5 56.5 45.5C62.5751 45.5 67.5 48.8579 67.5 53Z" stroke="#FFFEFA" stroke-width="5" stroke-linecap="round" stroke-linejoin="round"/>
</g>
<defs>
<filter id="filter0_d_1_131" x="0" y="0" width="80.0006" height="84" filterUnits="userSpaceOnUse" color-interpolation-filters="sRGB">
<feFlood flood-opacity="0" result="BackgroundImageFix"/>
<feColorMatrix in="SourceAlpha" type="matrix" values="0 0 0 0 0 0 0 0 0 0 0 0 0 0 0 0 0 0 127 0" result="hardAlpha"/>
<feOffset/>
<feGaussianBlur stdDeviation="5"/>
<feColorMatrix type="matrix" values="0 0 0 0 0.682353 0 0 0 0 0.909804 0 0 0 0 0.901961 0 0 0 1 0"/>
<feBlend mode="normal" in2="BackgroundImageFix" result="effect1_dropShadow_1_131"/>
<feBlend mode="normal" in="SourceGraphic" in2="effect1_dropShadow_1_131" result="shape"/>
</filter>
</defs>
</svg>
