<svg width="412" height="178" viewBox="0 0 412 178" fill="none" xmlns="http://www.w3.org/2000/svg">
<g filter="url(#filter0_dd_20_107)">
<path d="M328.877 86.1893H321.527V88.3893C321.527 91.8393 322.627 93.3893 325.027 93.3893C327.327 93.3893 328.277 91.8893 328.277 89.9393V89.8393C328.277 88.6893 328.977 87.9393 330.027 87.9393C331.127 87.9393 331.777 88.6893 331.777 89.8393V90.2893C331.777 94.0393 329.527 96.8393 325.027 96.8393C320.427 96.8393 317.827 93.9893 317.827 88.9893V76.4893C317.827 71.4893 320.427 68.6393 324.927 68.6393C329.427 68.6393 331.927 71.4893 331.927 76.4893V83.1393C331.927 85.2393 331.027 86.1893 328.877 86.1893ZM324.927 72.0893C322.627 72.0893 321.527 73.6393 321.527 77.0893V82.6393H328.327V77.0893C328.327 73.6393 327.227 72.0893 324.927 72.0893Z" fill="#FF7A86"/>
<path d="M310.65 81.8393C311.9 82.4893 312.5 83.9893 312.5 85.7393V94.6393C312.5 95.6393 311.65 96.4893 310.65 96.4893C309.65 96.4893 308.8 95.6393 308.8 94.6393V86.4393C308.8 84.9893 308 83.6893 306.55 83.6893H302.2V94.6393C302.2 95.6393 301.35 96.4893 300.35 96.4893C299.35 96.4893 298.5 95.6393 298.5 94.6393V61.3393C298.5 60.3393 299.35 59.4893 300.35 59.4893C301.35 59.4893 302.2 60.3393 302.2 61.3393V80.1393H306C307.45 80.1393 308.35 79.3393 308.35 77.8893V70.8393C308.35 69.8393 309.2 68.9893 310.2 68.9893C311.2 68.9893 312.05 69.8393 312.05 70.8393V78.0893C312.05 79.7393 311.65 81.1393 310.65 81.8393Z" fill="#FF7A86"/>
<path d="M285.815 96.8893C281.315 96.8893 278.715 94.0393 278.715 89.0393V76.4393C278.715 71.4393 281.315 68.5893 285.815 68.5893C290.315 68.5893 292.915 71.4393 292.915 76.4393V89.0393C292.915 94.0393 290.315 96.8893 285.815 96.8893ZM285.815 93.4393C288.115 93.4393 289.215 91.8893 289.215 88.4393V77.0393C289.215 73.5893 288.115 72.0393 285.815 72.0393C283.515 72.0393 282.415 73.5893 282.415 77.0393V88.4393C282.415 91.8893 283.515 93.4393 285.815 93.4393Z" fill="#FF7A86"/>
<path d="M266.272 68.6393C270.772 68.6393 273.372 71.4893 273.372 76.4893V94.6393C273.372 95.6393 272.522 96.4893 271.522 96.4893C270.672 96.4893 270.072 95.9893 269.772 95.2393C268.772 96.3393 267.672 96.8893 265.772 96.8893C261.822 96.8893 259.472 94.4393 259.472 89.4393V85.2393C259.472 80.2393 261.822 77.7893 265.772 77.7893C267.622 77.7893 268.722 78.2893 269.672 79.3393V77.0893C269.672 73.6393 268.572 72.0893 266.272 72.0893C263.972 72.0893 263.122 73.3393 263.122 75.2893V75.3393C263.122 76.2893 262.572 77.0393 261.372 77.0393C260.422 77.0393 259.672 76.2393 259.672 75.1893V74.6893C259.672 71.1893 261.772 68.6393 266.272 68.6393ZM266.172 93.4393C268.072 93.4393 269.672 91.6893 269.672 88.4393V86.2393C269.672 82.9893 268.072 81.2393 266.172 81.2393C264.022 81.2393 263.172 82.5393 263.172 85.9893V88.6893C263.172 92.1393 264.022 93.4393 266.172 93.4393Z" fill="#FF7A86"/>
<path d="M244.436 96.4893C243.436 96.4893 242.586 95.6393 242.586 94.6393V76.2893C242.586 71.2893 245.036 68.5393 249.336 68.5393C253.586 68.5393 255.836 71.1393 255.836 76.4393V77.6393C255.836 78.7893 255.036 79.5393 254.036 79.5393C253.086 79.5393 252.236 78.7893 252.236 77.6393V76.8893C252.236 73.5893 251.536 71.9893 249.486 71.9893C247.386 71.9893 246.286 73.4393 246.286 76.8893V94.6393C246.286 95.6393 245.436 96.4893 244.436 96.4893Z" fill="#FF7A86"/>
<path d="M229.993 68.6393C234.493 68.6393 237.093 71.4893 237.093 76.4893V94.6393C237.093 95.6393 236.243 96.4893 235.243 96.4893C234.393 96.4893 233.793 95.9893 233.493 95.2393C232.493 96.3393 231.393 96.8893 229.493 96.8893C225.543 96.8893 223.193 94.4393 223.193 89.4393V85.2393C223.193 80.2393 225.543 77.7893 229.493 77.7893C231.343 77.7893 232.443 78.2893 233.393 79.3393V77.0893C233.393 73.6393 232.293 72.0893 229.993 72.0893C227.693 72.0893 226.843 73.3393 226.843 75.2893V75.3393C226.843 76.2893 226.293 77.0393 225.093 77.0393C224.143 77.0393 223.393 76.2393 223.393 75.1893V74.6893C223.393 71.1893 225.493 68.6393 229.993 68.6393ZM229.893 93.4393C231.793 93.4393 233.393 91.6893 233.393 88.4393V86.2393C233.393 82.9893 231.793 81.2393 229.893 81.2393C227.743 81.2393 226.893 82.5393 226.893 85.9893V88.6893C226.893 92.1393 227.743 93.4393 229.893 93.4393Z" fill="#FF7A86"/>
<path d="M216.217 81.8393C217.467 82.4893 218.067 83.9893 218.067 85.7393V94.6393C218.067 95.6393 217.217 96.4893 216.217 96.4893C215.217 96.4893 214.367 95.6393 214.367 94.6393V86.4393C214.367 84.9893 213.567 83.6893 212.117 83.6893H207.767V94.6393C207.767 95.6393 206.917 96.4893 205.917 96.4893C204.917 96.4893 204.067 95.6393 204.067 94.6393V61.3393C204.067 60.3393 204.917 59.4893 205.917 59.4893C206.917 59.4893 207.767 60.3393 207.767 61.3393V80.1393H211.567C213.017 80.1393 213.917 79.3393 213.917 77.8893V70.8393C213.917 69.8393 214.767 68.9893 215.767 68.9893C216.767 68.9893 217.617 69.8393 217.617 70.8393V78.0893C217.617 79.7393 217.217 81.1393 216.217 81.8393Z" fill="#FF7A86"/>
<path d="M191.699 88.1393C192.799 88.1393 193.399 88.9393 193.399 90.0893V90.7393C193.399 94.2393 191.099 96.7893 187.499 96.7893C183.549 96.7893 181.149 94.2893 181.149 89.8893V72.5893H178.549C177.599 72.5893 176.799 71.7893 176.799 70.8393C176.799 69.8893 177.599 69.0893 178.549 69.0893H181.149V62.6393C181.149 61.6393 181.999 60.7893 182.999 60.7893C183.999 60.7893 184.849 61.6393 184.849 62.6393V69.0893H188.499C189.449 69.0893 190.249 69.8893 190.249 70.8393C190.249 71.7893 189.449 72.5893 188.499 72.5893H184.849V89.2893C184.849 92.1393 185.949 93.3393 187.649 93.3393C189.099 93.3393 189.949 92.0893 189.949 90.1393V90.0393C189.949 88.8893 190.649 88.1393 191.699 88.1393Z" fill="#43D7D2"/>
<path d="M171.308 86.1893H163.958V88.3893C163.958 91.8393 165.058 93.3893 167.458 93.3893C169.758 93.3893 170.708 91.8893 170.708 89.9393V89.8393C170.708 88.6893 171.408 87.9393 172.458 87.9393C173.558 87.9393 174.208 88.6893 174.208 89.8393V90.2893C174.208 94.0393 171.958 96.8393 167.458 96.8393C162.858 96.8393 160.258 93.9893 160.258 88.9893V76.4893C160.258 71.4893 162.858 68.6393 167.358 68.6393C171.858 68.6393 174.358 71.4893 174.358 76.4893V83.1393C174.358 85.2393 173.458 86.1893 171.308 86.1893ZM167.358 72.0893C165.058 72.0893 163.958 73.6393 163.958 77.0893V82.6393H170.758V77.0893C170.758 73.6393 169.658 72.0893 167.358 72.0893Z" fill="#43D7D2"/>
<path d="M153.082 81.8393C154.332 82.4893 154.932 83.9893 154.932 85.7393V94.6393C154.932 95.6393 154.082 96.4893 153.082 96.4893C152.082 96.4893 151.232 95.6393 151.232 94.6393V86.4393C151.232 84.9893 150.432 83.6893 148.982 83.6893H144.632V94.6393C144.632 95.6393 143.782 96.4893 142.782 96.4893C141.782 96.4893 140.932 95.6393 140.932 94.6393V61.3393C140.932 60.3393 141.782 59.4893 142.782 59.4893C143.782 59.4893 144.632 60.3393 144.632 61.3393V80.1393H148.432C149.882 80.1393 150.782 79.3393 150.782 77.8893V70.8393C150.782 69.8393 151.632 68.9893 152.632 68.9893C153.632 68.9893 154.482 69.8393 154.482 70.8393V78.0893C154.482 79.7393 154.082 81.1393 153.082 81.8393Z" fill="#43D7D2"/>
<path d="M129.321 96.7893C124.821 96.7893 122.221 93.9393 122.221 88.9393V76.5393C122.221 71.5393 124.821 68.6893 129.321 68.6893C133.821 68.6893 135.921 71.2393 135.921 74.7393V75.2393C135.921 76.2893 135.271 77.0393 134.171 77.0393C133.121 77.0393 132.471 76.2893 132.471 75.3393V75.2893C132.471 73.3393 131.571 72.1393 129.321 72.1393C127.021 72.1393 125.921 73.6893 125.921 77.1393V88.3393C125.921 91.7893 127.021 93.3393 129.321 93.3393C131.621 93.3393 132.471 92.0893 132.471 90.1893V90.1393C132.471 89.1393 133.121 88.3393 134.171 88.3393C135.271 88.3393 135.921 89.1393 135.921 90.0893V90.7393C135.921 94.2393 133.821 96.7893 129.321 96.7893Z" fill="#43D7D2"/>
<path d="M109.937 96.8893C105.437 96.8893 102.837 94.0393 102.837 89.0393V76.4393C102.837 71.4393 105.437 68.5893 109.937 68.5893C114.437 68.5893 117.037 71.4393 117.037 76.4393V89.0393C117.037 94.0393 114.437 96.8893 109.937 96.8893ZM109.937 93.4393C112.237 93.4393 113.337 91.8893 113.337 88.4393V77.0393C113.337 73.5893 112.237 72.0393 109.937 72.0393C107.637 72.0393 106.537 73.5893 106.537 77.0393V88.4393C106.537 91.8893 107.637 93.4393 109.937 93.4393Z" fill="#43D7D2"/>
<path d="M90.4601 68.5393C95.0601 68.5393 97.6601 71.3893 97.6601 76.3893V89.0893C97.6601 94.0893 95.0601 96.9393 90.4601 96.9393C89.2101 96.9393 87.9601 96.5393 86.9601 95.9393V103.989C86.9601 104.989 86.1101 105.839 85.1101 105.839C84.1101 105.839 83.2601 104.989 83.2601 103.989V76.3893C83.2601 71.3893 85.8601 68.5393 90.4601 68.5393ZM93.9601 88.4893V76.9893C93.9601 73.5393 92.8601 71.9893 90.4601 71.9893C88.0601 71.9893 86.9601 73.5393 86.9601 76.9893V88.4893C86.9601 91.7393 88.5601 93.4893 90.4601 93.4893C92.8601 93.4893 93.9601 91.9393 93.9601 88.4893Z" fill="#43D7D2"/>
<path d="M284.327 118.507C284.327 118.507 284.327 118.436 284.327 118.294V117.095H285.739C285.739 117.095 285.739 117.166 285.739 117.308V118.507C285.739 118.507 285.668 118.507 285.526 118.507H284.327ZM285.504 118.507C285.504 118.507 285.504 118.436 285.504 118.294V117.095H286.916C286.916 117.095 286.916 117.166 286.916 117.308V118.507C286.916 118.507 286.844 118.507 286.702 118.507H285.504ZM286.68 118.507C286.68 118.507 286.68 118.436 286.68 118.294V117.095H288.092C288.092 117.095 288.092 117.166 288.092 117.308V118.507C288.092 118.507 288.021 118.507 287.879 118.507H286.68ZM283.151 117.33C283.151 117.33 283.151 117.259 283.151 117.117V115.919H284.563C284.563 115.919 284.563 115.99 284.563 116.132V117.33C284.563 117.33 284.491 117.33 284.349 117.33H283.151ZM287.857 117.33C287.857 117.33 287.857 117.259 287.857 117.117V115.919H289.268C289.268 115.919 289.268 115.99 289.268 116.132V117.33C289.268 117.33 289.197 117.33 289.055 117.33H287.857ZM283.151 116.154C283.151 116.154 283.151 116.083 283.151 115.941V114.742H284.563C284.563 114.742 284.563 114.813 284.563 114.955V116.154C284.563 116.154 284.491 116.154 284.349 116.154H283.151ZM283.151 114.978C283.151 114.978 283.151 114.906 283.151 114.764V113.566H284.563C284.563 113.566 284.563 113.637 284.563 113.779V114.978C284.563 114.978 284.491 114.978 284.349 114.978H283.151ZM283.151 113.801C283.151 113.801 283.151 113.73 283.151 113.588V112.389H284.563C284.563 112.389 284.563 112.46 284.563 112.603V113.801C284.563 113.801 284.491 113.801 284.349 113.801H283.151ZM284.327 113.801C284.327 113.801 284.327 113.73 284.327 113.588V112.389H285.739C285.739 112.389 285.739 112.46 285.739 112.603V113.801C285.739 113.801 285.668 113.801 285.526 113.801H284.327ZM285.504 113.801C285.504 113.801 285.504 113.73 285.504 113.588V112.389H286.916C286.916 112.389 286.916 112.46 286.916 112.603V113.801C286.916 113.801 286.844 113.801 286.702 113.801H285.504ZM286.68 113.801C286.68 113.801 286.68 113.73 286.68 113.588V112.389H288.092C288.092 112.389 288.092 112.46 288.092 112.603V113.801C288.092 113.801 288.021 113.801 287.879 113.801H286.68ZM287.857 113.801C287.857 113.801 287.857 113.73 287.857 113.588V112.389H289.268C289.268 112.389 289.268 112.46 289.268 112.603V113.801C289.268 113.801 289.197 113.801 289.055 113.801H287.857ZM283.151 112.625C283.151 112.625 283.151 112.554 283.151 112.411V111.213H284.563C284.563 111.213 284.563 111.284 284.563 111.426V112.625C284.563 112.625 284.491 112.625 284.349 112.625H283.151ZM287.857 112.625C287.857 112.625 287.857 112.554 287.857 112.411V111.213H289.268C289.268 111.213 289.268 111.284 289.268 111.426V112.625C289.268 112.625 289.197 112.625 289.055 112.625H287.857ZM283.151 111.448C283.151 111.448 283.151 111.377 283.151 111.235V110.036H284.563C284.563 110.036 284.563 110.107 284.563 110.25V111.448C284.563 111.448 284.491 111.448 284.349 111.448H283.151ZM287.857 111.448C287.857 111.448 287.857 111.377 287.857 111.235V110.036H289.268C289.268 110.036 289.268 110.107 289.268 110.25V111.448C289.268 111.448 289.197 111.448 289.055 111.448H287.857ZM284.327 110.272C284.327 110.272 284.327 110.201 284.327 110.058V108.86H285.739C285.739 108.86 285.739 108.931 285.739 109.073V110.272C285.739 110.272 285.668 110.272 285.526 110.272H284.327ZM285.504 110.272C285.504 110.272 285.504 110.201 285.504 110.058V108.86H286.916C286.916 108.86 286.916 108.931 286.916 109.073V110.272C286.916 110.272 286.844 110.272 286.702 110.272H285.504ZM286.68 110.272C286.68 110.272 286.68 110.201 286.68 110.058V108.86H288.092C288.092 108.86 288.092 108.931 288.092 109.073V110.272C288.092 110.272 288.021 110.272 287.879 110.272H286.68Z" fill="#FF7A86"/>
<path d="M276.686 118.507C276.686 118.507 276.686 118.436 276.686 118.294V117.095H278.098C278.098 117.095 278.098 117.166 278.098 117.308V118.507C278.098 118.507 278.027 118.507 277.884 118.507H276.686ZM276.686 117.33C276.686 117.33 276.686 117.259 276.686 117.117V115.919H278.098C278.098 115.919 278.098 115.99 278.098 116.132V117.33C278.098 117.33 278.027 117.33 277.884 117.33H276.686ZM276.686 116.154C276.686 116.154 276.686 116.083 276.686 115.941V114.742H278.098C278.098 114.742 278.098 114.813 278.098 114.955V116.154C278.098 116.154 278.027 116.154 277.884 116.154H276.686ZM276.686 114.978C276.686 114.978 276.686 114.906 276.686 114.764V113.566H278.098C278.098 113.566 278.098 113.637 278.098 113.779V114.978C278.098 114.978 278.027 114.978 277.884 114.978H276.686ZM276.686 113.801C276.686 113.801 276.686 113.73 276.686 113.588V112.389H278.098C278.098 112.389 278.098 112.46 278.098 112.603V113.801C278.098 113.801 278.027 113.801 277.884 113.801H276.686ZM276.686 112.625C276.686 112.625 276.686 112.554 276.686 112.411V111.213H278.098C278.098 111.213 278.098 111.284 278.098 111.426V112.625C278.098 112.625 278.027 112.625 277.884 112.625H276.686ZM280.215 112.625C280.215 112.625 280.215 112.554 280.215 112.411V111.213H281.627C281.627 111.213 281.627 111.284 281.627 111.426V112.625C281.627 112.625 281.556 112.625 281.414 112.625H280.215ZM276.686 111.448C276.686 111.448 276.686 111.377 276.686 111.235V110.036H278.098C278.098 110.036 278.098 110.107 278.098 110.25V111.448C278.098 111.448 278.027 111.448 277.884 111.448H276.686ZM280.215 111.448C280.215 111.448 280.215 111.377 280.215 111.235V110.036H281.627C281.627 110.036 281.627 110.107 281.627 110.25V111.448C281.627 111.448 281.556 111.448 281.414 111.448H280.215ZM277.862 110.272C277.862 110.272 277.862 110.201 277.862 110.058V108.86H279.274C279.274 108.86 279.274 108.931 279.274 109.073V110.272C279.274 110.272 279.203 110.272 279.061 110.272H277.862ZM279.039 110.272C279.039 110.272 279.039 110.201 279.039 110.058V108.86H280.451C280.451 108.86 280.451 108.931 280.451 109.073V110.272C280.451 110.272 280.38 110.272 280.237 110.272H279.039Z" fill="#FF7A86"/>
<path d="M270.206 118.507C270.206 118.507 270.206 118.436 270.206 118.294V117.095H271.618C271.618 117.095 271.618 117.166 271.618 117.308V118.507C271.618 118.507 271.547 118.507 271.405 118.507H270.206ZM271.383 118.507C271.383 118.507 271.383 118.436 271.383 118.294V117.095H272.794C272.794 117.095 272.794 117.166 272.794 117.308V118.507C272.794 118.507 272.723 118.507 272.581 118.507H271.383ZM272.559 118.507C272.559 118.507 272.559 118.436 272.559 118.294V117.095H273.971C273.971 117.095 273.971 117.166 273.971 117.308V118.507C273.971 118.507 273.9 118.507 273.758 118.507H272.559ZM269.03 117.33C269.03 117.33 269.03 117.259 269.03 117.117V115.919H270.441C270.441 115.919 270.441 115.99 270.441 116.132V117.33C270.441 117.33 270.37 117.33 270.228 117.33H269.03ZM273.736 117.33C273.736 117.33 273.736 117.259 273.736 117.117V115.919H275.147C275.147 115.919 275.147 115.99 275.147 116.132V117.33C275.147 117.33 275.076 117.33 274.934 117.33H273.736ZM269.03 116.154C269.03 116.154 269.03 116.083 269.03 115.941V114.742H270.441C270.441 114.742 270.441 114.813 270.441 114.955V116.154C270.441 116.154 270.37 116.154 270.228 116.154H269.03ZM269.03 114.978C269.03 114.978 269.03 114.906 269.03 114.764V113.566H270.441C270.441 113.566 270.441 113.637 270.441 113.779V114.978C270.441 114.978 270.37 114.978 270.228 114.978H269.03ZM269.03 113.801C269.03 113.801 269.03 113.73 269.03 113.588V112.389H270.441C270.441 112.389 270.441 112.46 270.441 112.603V113.801C270.441 113.801 270.37 113.801 270.228 113.801H269.03ZM270.206 113.801C270.206 113.801 270.206 113.73 270.206 113.588V112.389H271.618C271.618 112.389 271.618 112.46 271.618 112.603V113.801C271.618 113.801 271.547 113.801 271.405 113.801H270.206ZM271.383 113.801C271.383 113.801 271.383 113.73 271.383 113.588V112.389H272.794C272.794 112.389 272.794 112.46 272.794 112.603V113.801C272.794 113.801 272.723 113.801 272.581 113.801H271.383ZM272.559 113.801C272.559 113.801 272.559 113.73 272.559 113.588V112.389H273.971C273.971 112.389 273.971 112.46 273.971 112.603V113.801C273.971 113.801 273.9 113.801 273.758 113.801H272.559ZM273.736 113.801C273.736 113.801 273.736 113.73 273.736 113.588V112.389H275.147C275.147 112.389 275.147 112.46 275.147 112.603V113.801C275.147 113.801 275.076 113.801 274.934 113.801H273.736ZM269.03 112.625C269.03 112.625 269.03 112.554 269.03 112.411V111.213H270.441C270.441 111.213 270.441 111.284 270.441 111.426V112.625C270.441 112.625 270.37 112.625 270.228 112.625H269.03ZM273.736 112.625C273.736 112.625 273.736 112.554 273.736 112.411V111.213H275.147C275.147 111.213 275.147 111.284 275.147 111.426V112.625C275.147 112.625 275.076 112.625 274.934 112.625H273.736ZM269.03 111.448C269.03 111.448 269.03 111.377 269.03 111.235V110.036H270.441C270.441 110.036 270.441 110.107 270.441 110.25V111.448C270.441 111.448 270.37 111.448 270.228 111.448H269.03ZM273.736 111.448C273.736 111.448 273.736 111.377 273.736 111.235V110.036H275.147C275.147 110.036 275.147 110.107 275.147 110.25V111.448C275.147 111.448 275.076 111.448 274.934 111.448H273.736ZM270.206 110.272C270.206 110.272 270.206 110.201 270.206 110.058V108.86H271.618C271.618 108.86 271.618 108.931 271.618 109.073V110.272C271.618 110.272 271.547 110.272 271.405 110.272H270.206ZM271.383 110.272C271.383 110.272 271.383 110.201 271.383 110.058V108.86H272.794C272.794 108.86 272.794 108.931 272.794 109.073V110.272C272.794 110.272 272.723 110.272 272.581 110.272H271.383ZM272.559 110.272C272.559 110.272 272.559 110.201 272.559 110.058V108.86H273.971C273.971 108.86 273.971 108.931 273.971 109.073V110.272C273.971 110.272 273.9 110.272 273.758 110.272H272.559Z" fill="#FF7A86"/>
<path d="M260.788 118.507C260.788 118.507 260.788 118.436 260.788 118.294V117.095H262.199C262.199 117.095 262.199 117.166 262.199 117.308V118.507C262.199 118.507 262.128 118.507 261.986 118.507H260.788ZM265.493 118.507C265.493 118.507 265.493 118.436 265.493 118.294V117.095H266.905C266.905 117.095 266.905 117.166 266.905 117.308V118.507C266.905 118.507 266.834 118.507 266.692 118.507H265.493ZM260.788 117.33C260.788 117.33 260.788 117.259 260.788 117.117V115.919H262.199C262.199 115.919 262.199 115.99 262.199 116.132V117.33C262.199 117.33 262.128 117.33 261.986 117.33H260.788ZM265.493 117.33C265.493 117.33 265.493 117.259 265.493 117.117V115.919H266.905C266.905 115.919 266.905 115.99 266.905 116.132V117.33C266.905 117.33 266.834 117.33 266.692 117.33H265.493ZM260.788 116.154C260.788 116.154 260.788 116.083 260.788 115.941V114.742H262.199C262.199 114.742 262.199 114.813 262.199 114.955V116.154C262.199 116.154 262.128 116.154 261.986 116.154H260.788ZM265.493 116.154C265.493 116.154 265.493 116.083 265.493 115.941V114.742H266.905C266.905 114.742 266.905 114.813 266.905 114.955V116.154C266.905 116.154 266.834 116.154 266.692 116.154H265.493ZM260.788 114.978C260.788 114.978 260.788 114.906 260.788 114.764V113.566H262.199C262.199 113.566 262.199 113.637 262.199 113.779V114.978C262.199 114.978 262.128 114.978 261.986 114.978H260.788ZM265.493 114.978C265.493 114.978 265.493 114.906 265.493 114.764V113.566H266.905C266.905 113.566 266.905 113.637 266.905 113.779V114.978C266.905 114.978 266.834 114.978 266.692 114.978H265.493ZM260.788 113.801C260.788 113.801 260.788 113.73 260.788 113.588V112.389H262.199C262.199 112.389 262.199 112.46 262.199 112.603V113.801C262.199 113.801 262.128 113.801 261.986 113.801H260.788ZM265.493 113.801C265.493 113.801 265.493 113.73 265.493 113.588V112.389H266.905C266.905 112.389 266.905 112.46 266.905 112.603V113.801C266.905 113.801 266.834 113.801 266.692 113.801H265.493ZM260.788 112.625C260.788 112.625 260.788 112.554 260.788 112.411V111.213H262.199C262.199 111.213 262.199 111.284 262.199 111.426V112.625C262.199 112.625 262.128 112.625 261.986 112.625H260.788ZM265.493 112.625C265.493 112.625 265.493 112.554 265.493 112.411V111.213H266.905C266.905 111.213 266.905 111.284 266.905 111.426V112.625C266.905 112.625 266.834 112.625 266.692 112.625H265.493ZM260.788 111.448C260.788 111.448 260.788 111.377 260.788 111.235V110.036H262.199C262.199 110.036 262.199 110.107 262.199 110.25V111.448C262.199 111.448 262.128 111.448 261.986 111.448H260.788ZM261.964 111.448C261.964 111.448 261.964 111.377 261.964 111.235V110.036H263.376C263.376 110.036 263.376 110.107 263.376 110.25V111.448C263.376 111.448 263.305 111.448 263.163 111.448H261.964ZM265.493 111.448C265.493 111.448 265.493 111.377 265.493 111.235V110.036H266.905C266.905 110.036 266.905 110.107 266.905 110.25V111.448C266.905 111.448 266.834 111.448 266.692 111.448H265.493ZM260.788 110.272C260.788 110.272 260.788 110.201 260.788 110.058V108.86H262.199C262.199 108.86 262.199 108.931 262.199 109.073V110.272C262.199 110.272 262.128 110.272 261.986 110.272H260.788ZM263.14 110.272C263.14 110.272 263.14 110.201 263.14 110.058V108.86H264.552C264.552 108.86 264.552 108.931 264.552 109.073V110.272C264.552 110.272 264.481 110.272 264.339 110.272H263.14ZM264.317 110.272C264.317 110.272 264.317 110.201 264.317 110.058V108.86H265.729C265.729 108.86 265.729 108.931 265.729 109.073V110.272C265.729 110.272 265.658 110.272 265.515 110.272H264.317ZM260.788 109.095C260.788 109.095 260.788 109.024 260.788 108.882V107.683H262.199C262.199 107.683 262.199 107.755 262.199 107.897V109.095C262.199 109.095 262.128 109.095 261.986 109.095H260.788ZM260.788 107.919C260.788 107.919 260.788 107.848 260.788 107.705V106.507H262.199C262.199 106.507 262.199 106.578 262.199 106.72V107.919C262.199 107.919 262.128 107.919 261.986 107.919H260.788ZM260.788 106.742C260.788 106.742 260.788 106.671 260.788 106.529V105.33H262.199C262.199 105.33 262.199 105.402 262.199 105.544V106.742C262.199 106.742 262.128 106.742 261.986 106.742H260.788ZM260.788 105.566C260.788 105.566 260.788 105.495 260.788 105.353V104.154H262.199C262.199 104.154 262.199 104.225 262.199 104.367V105.566C262.199 105.566 262.128 105.566 261.986 105.566H260.788Z" fill="#FF7A86"/>
<path d="M251.378 118.507C251.378 118.507 251.378 118.436 251.378 118.294V117.095H252.79C252.79 117.095 252.79 117.166 252.79 117.308V118.507C252.79 118.507 252.719 118.507 252.577 118.507H251.378ZM256.084 118.507C256.084 118.507 256.084 118.436 256.084 118.294V117.095H257.496C257.496 117.095 257.496 117.166 257.496 117.308V118.507C257.496 118.507 257.425 118.507 257.282 118.507H256.084ZM250.79 117.33C250.79 117.33 250.79 117.259 250.79 117.117V115.919H252.202C252.202 115.919 252.202 115.99 252.202 116.132V117.33C252.202 117.33 252.131 117.33 251.988 117.33H250.79ZM251.966 117.33C251.966 117.33 251.966 117.259 251.966 117.117V115.919H253.378C253.378 115.919 253.378 115.99 253.378 116.132V117.33C253.378 117.33 253.307 117.33 253.165 117.33H251.966ZM255.496 117.33C255.496 117.33 255.496 117.259 255.496 117.117V115.919H256.907C256.907 115.919 256.907 115.99 256.907 116.132V117.33C256.907 117.33 256.836 117.33 256.694 117.33H255.496ZM256.672 117.33C256.672 117.33 256.672 117.259 256.672 117.117V115.919H258.084C258.084 115.919 258.084 115.99 258.084 116.132V117.33C258.084 117.33 258.013 117.33 257.871 117.33H256.672ZM250.202 116.154C250.202 116.154 250.202 116.083 250.202 115.941V114.742H251.613C251.613 114.742 251.613 114.813 251.613 114.955V116.154C251.613 116.154 251.542 116.154 251.4 116.154H250.202ZM252.555 116.154C252.555 116.154 252.555 116.083 252.555 115.941V114.742H253.966C253.966 114.742 253.966 114.813 253.966 114.955V116.154C253.966 116.154 253.895 116.154 253.753 116.154H252.555ZM254.907 116.154C254.907 116.154 254.907 116.083 254.907 115.941V114.742H256.319C256.319 114.742 256.319 114.813 256.319 114.955V116.154C256.319 116.154 256.248 116.154 256.106 116.154H254.907ZM257.26 116.154C257.26 116.154 257.26 116.083 257.26 115.941V114.742H258.672C258.672 114.742 258.672 114.813 258.672 114.955V116.154C258.672 116.154 258.601 116.154 258.459 116.154H257.26ZM249.613 114.978C249.613 114.978 249.613 114.906 249.613 114.764V113.566H251.025C251.025 113.566 251.025 113.637 251.025 113.779V114.978C251.025 114.978 250.954 114.978 250.812 114.978H249.613ZM253.143 114.978C253.143 114.978 253.143 114.906 253.143 114.764V113.566H254.555C254.555 113.566 254.555 113.637 254.555 113.779V114.978C254.555 114.978 254.483 114.978 254.341 114.978H253.143ZM254.319 114.978C254.319 114.978 254.319 114.906 254.319 114.764V113.566H255.731C255.731 113.566 255.731 113.637 255.731 113.779V114.978C255.731 114.978 255.66 114.978 255.518 114.978H254.319ZM257.849 114.978C257.849 114.978 257.849 114.906 257.849 114.764V113.566H259.26C259.26 113.566 259.26 113.637 259.26 113.779V114.978C259.26 114.978 259.189 114.978 259.047 114.978H257.849ZM249.613 113.801C249.613 113.801 249.613 113.73 249.613 113.588V112.389H251.025C251.025 112.389 251.025 112.46 251.025 112.603V113.801C251.025 113.801 250.954 113.801 250.812 113.801H249.613ZM253.731 113.801C253.731 113.801 253.731 113.73 253.731 113.588V112.389H255.143C255.143 112.389 255.143 112.46 255.143 112.603V113.801C255.143 113.801 255.072 113.801 254.93 113.801H253.731ZM257.849 113.801C257.849 113.801 257.849 113.73 257.849 113.588V112.389H259.26C259.26 112.389 259.26 112.46 259.26 112.603V113.801C259.26 113.801 259.189 113.801 259.047 113.801H257.849ZM249.613 112.625C249.613 112.625 249.613 112.554 249.613 112.411V111.213H251.025C251.025 111.213 251.025 111.284 251.025 111.426V112.625C251.025 112.625 250.954 112.625 250.812 112.625H249.613ZM253.731 112.625C253.731 112.625 253.731 112.554 253.731 112.411V111.213H255.143C255.143 111.213 255.143 111.284 255.143 111.426V112.625C255.143 112.625 255.072 112.625 254.93 112.625H253.731ZM257.849 112.625C257.849 112.625 257.849 112.554 257.849 112.411V111.213H259.26C259.26 111.213 259.26 111.284 259.26 111.426V112.625C259.26 112.625 259.189 112.625 259.047 112.625H257.849ZM249.613 111.448C249.613 111.448 249.613 111.377 249.613 111.235V110.036H251.025C251.025 110.036 251.025 110.107 251.025 110.25V111.448C251.025 111.448 250.954 111.448 250.812 111.448H249.613ZM253.731 111.448C253.731 111.448 253.731 111.377 253.731 111.235V110.036H255.143C255.143 110.036 255.143 110.107 255.143 110.25V111.448C255.143 111.448 255.072 111.448 254.93 111.448H253.731ZM257.849 111.448C257.849 111.448 257.849 111.377 257.849 111.235V110.036H259.26C259.26 110.036 259.26 110.107 259.26 110.25V111.448C259.26 111.448 259.189 111.448 259.047 111.448H257.849ZM249.613 110.272C249.613 110.272 249.613 110.201 249.613 110.058V108.86H251.025C251.025 108.86 251.025 108.931 251.025 109.073V110.272C251.025 110.272 250.954 110.272 250.812 110.272H249.613ZM253.731 110.272C253.731 110.272 253.731 110.201 253.731 110.058V108.86H255.143C255.143 108.86 255.143 108.931 255.143 109.073V110.272C255.143 110.272 255.072 110.272 254.93 110.272H253.731ZM257.849 110.272C257.849 110.272 257.849 110.201 257.849 110.058V108.86H259.26C259.26 108.86 259.26 108.931 259.26 109.073V110.272C259.26 110.272 259.189 110.272 259.047 110.272H257.849Z" fill="#FF7A86"/>
<path d="M241.386 122.036C241.386 122.036 241.386 121.965 241.386 121.823V120.625H242.798C242.798 120.625 242.798 120.696 242.798 120.838V122.036C242.798 122.036 242.727 122.036 242.585 122.036H241.386ZM242.563 122.036C242.563 122.036 242.563 121.965 242.563 121.823V120.625H243.974C243.974 120.625 243.974 120.696 243.974 120.838V122.036C243.974 122.036 243.903 122.036 243.761 122.036H242.563ZM243.739 122.036C243.739 122.036 243.739 121.965 243.739 121.823V120.625H245.151C245.151 120.625 245.151 120.696 245.151 120.838V122.036C245.151 122.036 245.08 122.036 244.938 122.036H243.739ZM244.327 120.86C244.327 120.86 244.327 120.789 244.327 120.647V119.448H245.739C245.739 119.448 245.739 119.519 245.739 119.661V120.86C245.739 120.86 245.668 120.86 245.526 120.86H244.327ZM244.916 119.683C244.916 119.683 244.916 119.612 244.916 119.47V118.272H246.327C246.327 118.272 246.327 118.343 246.327 118.485V119.683C246.327 119.683 246.256 119.683 246.114 119.683H244.916ZM244.327 118.507C244.327 118.507 244.327 118.436 244.327 118.294V117.095H245.739C245.739 117.095 245.739 117.166 245.739 117.308V118.507C245.739 118.507 245.668 118.507 245.526 118.507H244.327ZM245.504 118.507C245.504 118.507 245.504 118.436 245.504 118.294V117.095H246.916C246.916 117.095 246.916 117.166 246.916 117.308V118.507C246.916 118.507 246.844 118.507 246.702 118.507H245.504ZM243.739 117.33C243.739 117.33 243.739 117.259 243.739 117.117V115.919H245.151C245.151 115.919 245.151 115.99 245.151 116.132V117.33C245.151 117.33 245.08 117.33 244.938 117.33H243.739ZM246.092 117.33C246.092 117.33 246.092 117.259 246.092 117.117V115.919H247.504C247.504 115.919 247.504 115.99 247.504 116.132V117.33C247.504 117.33 247.433 117.33 247.291 117.33H246.092ZM243.151 116.154C243.151 116.154 243.151 116.083 243.151 115.941V114.742H244.563C244.563 114.742 244.563 114.813 244.563 114.955V116.154C244.563 116.154 244.492 116.154 244.349 116.154H243.151ZM246.68 116.154C246.68 116.154 246.68 116.083 246.68 115.941V114.742H248.092C248.092 114.742 248.092 114.813 248.092 114.955V116.154C248.092 116.154 248.021 116.154 247.879 116.154H246.68ZM242.563 114.978C242.563 114.978 242.563 114.906 242.563 114.764V113.566H243.974C243.974 113.566 243.974 113.637 243.974 113.779V114.978C243.974 114.978 243.903 114.978 243.761 114.978H242.563ZM247.268 114.978C247.268 114.978 247.268 114.906 247.268 114.764V113.566H248.68C248.68 113.566 248.68 113.637 248.68 113.779V114.978C248.68 114.978 248.609 114.978 248.467 114.978H247.268ZM242.563 113.801C242.563 113.801 242.563 113.73 242.563 113.588V112.389H243.974C243.974 112.389 243.974 112.46 243.974 112.603V113.801C243.974 113.801 243.903 113.801 243.761 113.801H242.563ZM247.268 113.801C247.268 113.801 247.268 113.73 247.268 113.588V112.389H248.68C248.68 112.389 248.68 112.46 248.68 112.603V113.801C248.68 113.801 248.609 113.801 248.467 113.801H247.268ZM242.563 112.625C242.563 112.625 242.563 112.554 242.563 112.411V111.213H243.974C243.974 111.213 243.974 111.284 243.974 111.426V112.625C243.974 112.625 243.903 112.625 243.761 112.625H242.563ZM247.268 112.625C247.268 112.625 247.268 112.554 247.268 112.411V111.213H248.68C248.68 111.213 248.68 111.284 248.68 111.426V112.625C248.68 112.625 248.609 112.625 248.467 112.625H247.268ZM242.563 111.448C242.563 111.448 242.563 111.377 242.563 111.235V110.036H243.974C243.974 110.036 243.974 110.107 243.974 110.25V111.448C243.974 111.448 243.903 111.448 243.761 111.448H242.563ZM247.268 111.448C247.268 111.448 247.268 111.377 247.268 111.235V110.036H248.68C248.68 110.036 248.68 110.107 248.68 110.25V111.448C248.68 111.448 248.609 111.448 248.467 111.448H247.268ZM242.563 110.272C242.563 110.272 242.563 110.201 242.563 110.058V108.86H243.974C243.974 108.86 243.974 108.931 243.974 109.073V110.272C243.974 110.272 243.903 110.272 243.761 110.272H242.563ZM247.268 110.272C247.268 110.272 247.268 110.201 247.268 110.058V108.86H248.68C248.68 108.86 248.68 108.931 248.68 109.073V110.272C248.68 110.272 248.609 110.272 248.467 110.272H247.268Z" fill="#FF7A86"/>
<path d="M234.909 118.507C234.909 118.507 234.909 118.436 234.909 118.294V117.095H236.32C236.32 117.095 236.32 117.166 236.32 117.308V118.507C236.32 118.507 236.249 118.507 236.107 118.507H234.909ZM239.615 118.507C239.615 118.507 239.615 118.436 239.615 118.294V117.095H241.026C241.026 117.095 241.026 117.166 241.026 117.308V118.507C241.026 118.507 240.955 118.507 240.813 118.507H239.615ZM234.909 117.33C234.909 117.33 234.909 117.259 234.909 117.117V115.919H236.32C236.32 115.919 236.32 115.99 236.32 116.132V117.33C236.32 117.33 236.249 117.33 236.107 117.33H234.909ZM239.615 117.33C239.615 117.33 239.615 117.259 239.615 117.117V115.919H241.026C241.026 115.919 241.026 115.99 241.026 116.132V117.33C241.026 117.33 240.955 117.33 240.813 117.33H239.615ZM234.909 116.154C234.909 116.154 234.909 116.083 234.909 115.941V114.742H236.32C236.32 114.742 236.32 114.813 236.32 114.955V116.154C236.32 116.154 236.249 116.154 236.107 116.154H234.909ZM239.615 116.154C239.615 116.154 239.615 116.083 239.615 115.941V114.742H241.026C241.026 114.742 241.026 114.813 241.026 114.955V116.154C241.026 116.154 240.955 116.154 240.813 116.154H239.615ZM234.909 114.978C234.909 114.978 234.909 114.906 234.909 114.764V113.566H236.32C236.32 113.566 236.32 113.637 236.32 113.779V114.978C236.32 114.978 236.249 114.978 236.107 114.978H234.909ZM239.615 114.978C239.615 114.978 239.615 114.906 239.615 114.764V113.566H241.026C241.026 113.566 241.026 113.637 241.026 113.779V114.978C241.026 114.978 240.955 114.978 240.813 114.978H239.615ZM234.909 113.801C234.909 113.801 234.909 113.73 234.909 113.588V112.389H236.32C236.32 112.389 236.32 112.46 236.32 112.603V113.801C236.32 113.801 236.249 113.801 236.107 113.801H234.909ZM239.615 113.801C239.615 113.801 239.615 113.73 239.615 113.588V112.389H241.026C241.026 112.389 241.026 112.46 241.026 112.603V113.801C241.026 113.801 240.955 113.801 240.813 113.801H239.615ZM234.909 112.625C234.909 112.625 234.909 112.554 234.909 112.411V111.213H236.32C236.32 111.213 236.32 111.284 236.32 111.426V112.625C236.32 112.625 236.249 112.625 236.107 112.625H234.909ZM239.615 112.625C239.615 112.625 239.615 112.554 239.615 112.411V111.213H241.026C241.026 111.213 241.026 111.284 241.026 111.426V112.625C241.026 112.625 240.955 112.625 240.813 112.625H239.615ZM234.909 111.448C234.909 111.448 234.909 111.377 234.909 111.235V110.036H236.32C236.32 110.036 236.32 110.107 236.32 110.25V111.448C236.32 111.448 236.249 111.448 236.107 111.448H234.909ZM236.085 111.448C236.085 111.448 236.085 111.377 236.085 111.235V110.036H237.497C237.497 110.036 237.497 110.107 237.497 110.25V111.448C237.497 111.448 237.426 111.448 237.284 111.448H236.085ZM239.615 111.448C239.615 111.448 239.615 111.377 239.615 111.235V110.036H241.026C241.026 110.036 241.026 110.107 241.026 110.25V111.448C241.026 111.448 240.955 111.448 240.813 111.448H239.615ZM234.909 110.272C234.909 110.272 234.909 110.201 234.909 110.058V108.86H236.32C236.32 108.86 236.32 108.931 236.32 109.073V110.272C236.32 110.272 236.249 110.272 236.107 110.272H234.909ZM237.262 110.272C237.262 110.272 237.262 110.201 237.262 110.058V108.86H238.673C238.673 108.86 238.673 108.931 238.673 109.073V110.272C238.673 110.272 238.602 110.272 238.46 110.272H237.262ZM238.438 110.272C238.438 110.272 238.438 110.201 238.438 110.058V108.86H239.85C239.85 108.86 239.85 108.931 239.85 109.073V110.272C239.85 110.272 239.779 110.272 239.637 110.272H238.438Z" fill="#FF7A86"/>
<path d="M227.841 118.507C227.841 118.507 227.841 118.436 227.841 118.294V117.095H229.252C229.252 117.095 229.252 117.166 229.252 117.308V118.507C229.252 118.507 229.181 118.507 229.039 118.507H227.841ZM229.017 118.507C229.017 118.507 229.017 118.436 229.017 118.294V117.095H230.429C230.429 117.095 230.429 117.166 230.429 117.308V118.507C230.429 118.507 230.358 118.507 230.216 118.507H229.017ZM231.37 118.507C231.37 118.507 231.37 118.436 231.37 118.294V117.095H232.782C232.782 117.095 232.782 117.166 232.782 117.308V118.507C232.782 118.507 232.711 118.507 232.569 118.507H231.37ZM226.664 117.33C226.664 117.33 226.664 117.259 226.664 117.117V115.919H228.076C228.076 115.919 228.076 115.99 228.076 116.132V117.33C228.076 117.33 228.005 117.33 227.863 117.33H226.664ZM230.194 117.33C230.194 117.33 230.194 117.259 230.194 117.117V115.919H231.605C231.605 115.919 231.605 115.99 231.605 116.132V117.33C231.605 117.33 231.534 117.33 231.392 117.33H230.194ZM231.37 117.33C231.37 117.33 231.37 117.259 231.37 117.117V115.919H232.782C232.782 115.919 232.782 115.99 232.782 116.132V117.33C232.782 117.33 232.711 117.33 232.569 117.33H231.37ZM226.664 116.154C226.664 116.154 226.664 116.083 226.664 115.941V114.742H228.076C228.076 114.742 228.076 114.813 228.076 114.955V116.154C228.076 116.154 228.005 116.154 227.863 116.154H226.664ZM231.37 116.154C231.37 116.154 231.37 116.083 231.37 115.941V114.742H232.782C232.782 114.742 232.782 114.813 232.782 114.955V116.154C232.782 116.154 232.711 116.154 232.569 116.154H231.37ZM227.841 114.978C227.841 114.978 227.841 114.906 227.841 114.764V113.566H229.252C229.252 113.566 229.252 113.637 229.252 113.779V114.978C229.252 114.978 229.181 114.978 229.039 114.978H227.841ZM229.017 114.978C229.017 114.978 229.017 114.906 229.017 114.764V113.566H230.429C230.429 113.566 230.429 113.637 230.429 113.779V114.978C230.429 114.978 230.358 114.978 230.216 114.978H229.017ZM230.194 114.978C230.194 114.978 230.194 114.906 230.194 114.764V113.566H231.605C231.605 113.566 231.605 113.637 231.605 113.779V114.978C231.605 114.978 231.534 114.978 231.392 114.978H230.194ZM231.37 114.978C231.37 114.978 231.37 114.906 231.37 114.764V113.566H232.782C232.782 113.566 232.782 113.637 232.782 113.779V114.978C232.782 114.978 232.711 114.978 232.569 114.978H231.37ZM231.37 113.801C231.37 113.801 231.37 113.73 231.37 113.588V112.389H232.782C232.782 112.389 232.782 112.46 232.782 112.603V113.801C232.782 113.801 232.711 113.801 232.569 113.801H231.37ZM231.37 112.625C231.37 112.625 231.37 112.554 231.37 112.411V111.213H232.782C232.782 111.213 232.782 111.284 232.782 111.426V112.625C232.782 112.625 232.711 112.625 232.569 112.625H231.37ZM226.664 111.448C226.664 111.448 226.664 111.377 226.664 111.235V110.036H228.076C228.076 110.036 228.076 110.107 228.076 110.25V111.448C228.076 111.448 228.005 111.448 227.863 111.448H226.664ZM231.37 111.448C231.37 111.448 231.37 111.377 231.37 111.235V110.036H232.782C232.782 110.036 232.782 110.107 232.782 110.25V111.448C232.782 111.448 232.711 111.448 232.569 111.448H231.37ZM227.841 110.272C227.841 110.272 227.841 110.201 227.841 110.058V108.86H229.252C229.252 108.86 229.252 108.931 229.252 109.073V110.272C229.252 110.272 229.181 110.272 229.039 110.272H227.841ZM229.017 110.272C229.017 110.272 229.017 110.201 229.017 110.058V108.86H230.429C230.429 108.86 230.429 108.931 230.429 109.073V110.272C230.429 110.272 230.358 110.272 230.216 110.272H229.017ZM230.194 110.272C230.194 110.272 230.194 110.201 230.194 110.058V108.86H231.605C231.605 108.86 231.605 108.931 231.605 109.073V110.272C231.605 110.272 231.534 110.272 231.392 110.272H230.194Z" fill="#FF7A86"/>
<path d="M219.594 119.683C219.594 119.683 219.594 119.612 219.594 119.47V118.272H221.006C221.006 118.272 221.006 118.343 221.006 118.485V119.683C221.006 119.683 220.935 119.683 220.792 119.683H219.594ZM220.182 118.507C220.182 118.507 220.182 118.436 220.182 118.294V117.095H221.594C221.594 117.095 221.594 117.166 221.594 117.308V118.507C221.594 118.507 221.523 118.507 221.381 118.507H220.182ZM220.182 117.33C220.182 117.33 220.182 117.259 220.182 117.117V115.919H221.594C221.594 115.919 221.594 115.99 221.594 116.132V117.33C221.594 117.33 221.523 117.33 221.381 117.33H220.182ZM220.182 116.154C220.182 116.154 220.182 116.083 220.182 115.941V114.742H221.594C221.594 114.742 221.594 114.813 221.594 114.955V116.154C221.594 116.154 221.523 116.154 221.381 116.154H220.182Z" fill="#FF7A86"/>
<path d="M213.702 118.507C213.702 118.507 213.702 118.436 213.702 118.294V117.095H215.114C215.114 117.095 215.114 117.166 215.114 117.308V118.507C215.114 118.507 215.043 118.507 214.901 118.507H213.702ZM214.879 118.507C214.879 118.507 214.879 118.436 214.879 118.294V117.095H216.291C216.291 117.095 216.291 117.166 216.291 117.308V118.507C216.291 118.507 216.219 118.507 216.077 118.507H214.879ZM216.055 118.507C216.055 118.507 216.055 118.436 216.055 118.294V117.095H217.467C217.467 117.095 217.467 117.166 217.467 117.308V118.507C217.467 118.507 217.396 118.507 217.254 118.507H216.055ZM212.526 117.33C212.526 117.33 212.526 117.259 212.526 117.117V115.919H213.938C213.938 115.919 213.938 115.99 213.938 116.132V117.33C213.938 117.33 213.867 117.33 213.724 117.33H212.526ZM217.232 117.33C217.232 117.33 217.232 117.259 217.232 117.117V115.919H218.643C218.643 115.919 218.643 115.99 218.643 116.132V117.33C218.643 117.33 218.572 117.33 218.43 117.33H217.232ZM212.526 116.154C212.526 116.154 212.526 116.083 212.526 115.941V114.742H213.938C213.938 114.742 213.938 114.813 213.938 114.955V116.154C213.938 116.154 213.867 116.154 213.724 116.154H212.526ZM212.526 114.978C212.526 114.978 212.526 114.906 212.526 114.764V113.566H213.938C213.938 113.566 213.938 113.637 213.938 113.779V114.978C213.938 114.978 213.867 114.978 213.724 114.978H212.526ZM212.526 113.801C212.526 113.801 212.526 113.73 212.526 113.588V112.389H213.938C213.938 112.389 213.938 112.46 213.938 112.603V113.801C213.938 113.801 213.867 113.801 213.724 113.801H212.526ZM212.526 112.625C212.526 112.625 212.526 112.554 212.526 112.411V111.213H213.938C213.938 111.213 213.938 111.284 213.938 111.426V112.625C213.938 112.625 213.867 112.625 213.724 112.625H212.526ZM212.526 111.448C212.526 111.448 212.526 111.377 212.526 111.235V110.036H213.938C213.938 110.036 213.938 110.107 213.938 110.25V111.448C213.938 111.448 213.867 111.448 213.724 111.448H212.526ZM217.232 111.448C217.232 111.448 217.232 111.377 217.232 111.235V110.036H218.643C218.643 110.036 218.643 110.107 218.643 110.25V111.448C218.643 111.448 218.572 111.448 218.43 111.448H217.232ZM213.702 110.272C213.702 110.272 213.702 110.201 213.702 110.058V108.86H215.114C215.114 108.86 215.114 108.931 215.114 109.073V110.272C215.114 110.272 215.043 110.272 214.901 110.272H213.702ZM214.879 110.272C214.879 110.272 214.879 110.201 214.879 110.058V108.86H216.291C216.291 108.86 216.291 108.931 216.291 109.073V110.272C216.291 110.272 216.219 110.272 216.077 110.272H214.879ZM216.055 110.272C216.055 110.272 216.055 110.201 216.055 110.058V108.86H217.467C217.467 108.86 217.467 108.931 217.467 109.073V110.272C217.467 110.272 217.396 110.272 217.254 110.272H216.055Z" fill="#FF7A86"/>
<path d="M208.991 118.507C208.991 118.507 208.991 118.436 208.991 118.294V117.095H210.402C210.402 117.095 210.402 117.166 210.402 117.308V118.507C210.402 118.507 210.331 118.507 210.189 118.507H208.991ZM208.991 117.33C208.991 117.33 208.991 117.259 208.991 117.117V115.919H210.402C210.402 115.919 210.402 115.99 210.402 116.132V117.33C210.402 117.33 210.331 117.33 210.189 117.33H208.991ZM208.991 116.154C208.991 116.154 208.991 116.083 208.991 115.941V114.742H210.402C210.402 114.742 210.402 114.813 210.402 114.955V116.154C210.402 116.154 210.331 116.154 210.189 116.154H208.991ZM208.991 114.978C208.991 114.978 208.991 114.906 208.991 114.764V113.566H210.402C210.402 113.566 210.402 113.637 210.402 113.779V114.978C210.402 114.978 210.331 114.978 210.189 114.978H208.991ZM208.991 113.801C208.991 113.801 208.991 113.73 208.991 113.588V112.389H210.402C210.402 112.389 210.402 112.46 210.402 112.603V113.801C210.402 113.801 210.331 113.801 210.189 113.801H208.991ZM208.991 112.625C208.991 112.625 208.991 112.554 208.991 112.411V111.213H210.402C210.402 111.213 210.402 111.284 210.402 111.426V112.625C210.402 112.625 210.331 112.625 210.189 112.625H208.991ZM208.991 111.448C208.991 111.448 208.991 111.377 208.991 111.235V110.036H210.402C210.402 110.036 210.402 110.107 210.402 110.25V111.448C210.402 111.448 210.331 111.448 210.189 111.448H208.991ZM208.991 110.272C208.991 110.272 208.991 110.201 208.991 110.058V108.86H210.402C210.402 108.86 210.402 108.931 210.402 109.073V110.272C210.402 110.272 210.331 110.272 210.189 110.272H208.991ZM208.991 107.919C208.991 107.919 208.991 107.848 208.991 107.705V106.507H210.402C210.402 106.507 210.402 106.578 210.402 106.72V107.919C210.402 107.919 210.331 107.919 210.189 107.919H208.991ZM208.991 106.742C208.991 106.742 208.991 106.671 208.991 106.529V105.33H210.402C210.402 105.33 210.402 105.402 210.402 105.544V106.742C210.402 106.742 210.331 106.742 210.189 106.742H208.991Z" fill="#FF7A86"/>
<path d="M201.925 118.507C201.925 118.507 201.925 118.436 201.925 118.294V117.095H203.337C203.337 117.095 203.337 117.166 203.337 117.308V118.507C203.337 118.507 203.266 118.507 203.123 118.507H201.925ZM203.101 118.507C203.101 118.507 203.101 118.436 203.101 118.294V117.095H204.513C204.513 117.095 204.513 117.166 204.513 117.308V118.507C204.513 118.507 204.442 118.507 204.3 118.507H203.101ZM204.278 118.507C204.278 118.507 204.278 118.436 204.278 118.294V117.095H205.69C205.69 117.095 205.69 117.166 205.69 117.308V118.507C205.69 118.507 205.619 118.507 205.476 118.507H204.278ZM200.748 117.33C200.748 117.33 200.748 117.259 200.748 117.117V115.919H202.16C202.16 115.919 202.16 115.99 202.16 116.132V117.33C202.16 117.33 202.089 117.33 201.947 117.33H200.748ZM205.454 117.33C205.454 117.33 205.454 117.259 205.454 117.117V115.919H206.866C206.866 115.919 206.866 115.99 206.866 116.132V117.33C206.866 117.33 206.795 117.33 206.653 117.33H205.454ZM200.748 116.154C200.748 116.154 200.748 116.083 200.748 115.941V114.742H202.16C202.16 114.742 202.16 114.813 202.16 114.955V116.154C202.16 116.154 202.089 116.154 201.947 116.154H200.748ZM205.454 116.154C205.454 116.154 205.454 116.083 205.454 115.941V114.742H206.866C206.866 114.742 206.866 114.813 206.866 114.955V116.154C206.866 116.154 206.795 116.154 206.653 116.154H205.454ZM204.278 114.978C204.278 114.978 204.278 114.906 204.278 114.764V113.566H205.69C205.69 113.566 205.69 113.637 205.69 113.779V114.978C205.69 114.978 205.619 114.978 205.476 114.978H204.278ZM203.101 114.389C203.101 114.389 203.101 114.318 203.101 114.176V112.978H204.513C204.513 112.978 204.513 113.049 204.513 113.191V114.389C204.513 114.389 204.442 114.389 204.3 114.389H203.101ZM201.925 113.801C201.925 113.801 201.925 113.73 201.925 113.588V112.389H203.337C203.337 112.389 203.337 112.46 203.337 112.603V113.801C203.337 113.801 203.266 113.801 203.123 113.801H201.925ZM200.748 112.625C200.748 112.625 200.748 112.554 200.748 112.411V111.213H202.16C202.16 111.213 202.16 111.284 202.16 111.426V112.625C202.16 112.625 202.089 112.625 201.947 112.625H200.748ZM205.454 112.625C205.454 112.625 205.454 112.554 205.454 112.411V111.213H206.866C206.866 111.213 206.866 111.284 206.866 111.426V112.625C206.866 112.625 206.795 112.625 206.653 112.625H205.454ZM200.748 111.448C200.748 111.448 200.748 111.377 200.748 111.235V110.036H202.16C202.16 110.036 202.16 110.107 202.16 110.25V111.448C202.16 111.448 202.089 111.448 201.947 111.448H200.748ZM205.454 111.448C205.454 111.448 205.454 111.377 205.454 111.235V110.036H206.866C206.866 110.036 206.866 110.107 206.866 110.25V111.448C206.866 111.448 206.795 111.448 206.653 111.448H205.454ZM201.925 110.272C201.925 110.272 201.925 110.201 201.925 110.058V108.86H203.337C203.337 108.86 203.337 108.931 203.337 109.073V110.272C203.337 110.272 203.266 110.272 203.123 110.272H201.925ZM203.101 110.272C203.101 110.272 203.101 110.201 203.101 110.058V108.86H204.513C204.513 108.86 204.513 108.931 204.513 109.073V110.272C204.513 110.272 204.442 110.272 204.3 110.272H203.101ZM204.278 110.272C204.278 110.272 204.278 110.201 204.278 110.058V108.86H205.69C205.69 108.86 205.69 108.931 205.69 109.073V110.272C205.69 110.272 205.619 110.272 205.476 110.272H204.278Z" fill="#FF7A86"/>
<path d="M193.683 118.507C193.683 118.507 193.683 118.436 193.683 118.294V117.095H195.095C195.095 117.095 195.095 117.166 195.095 117.308V118.507C195.095 118.507 195.023 118.507 194.881 118.507H193.683ZM194.859 118.507C194.859 118.507 194.859 118.436 194.859 118.294V117.095H196.271C196.271 117.095 196.271 117.166 196.271 117.308V118.507C196.271 118.507 196.2 118.507 196.058 118.507H194.859ZM197.212 118.507C197.212 118.507 197.212 118.436 197.212 118.294V117.095H198.624C198.624 117.095 198.624 117.166 198.624 117.308V118.507C198.624 118.507 198.553 118.507 198.411 118.507H197.212ZM192.506 117.33C192.506 117.33 192.506 117.259 192.506 117.117V115.919H193.918C193.918 115.919 193.918 115.99 193.918 116.132V117.33C193.918 117.33 193.847 117.33 193.705 117.33H192.506ZM196.036 117.33C196.036 117.33 196.036 117.259 196.036 117.117V115.919H197.447C197.447 115.919 197.447 115.99 197.447 116.132V117.33C197.447 117.33 197.376 117.33 197.234 117.33H196.036ZM197.212 117.33C197.212 117.33 197.212 117.259 197.212 117.117V115.919H198.624C198.624 115.919 198.624 115.99 198.624 116.132V117.33C198.624 117.33 198.553 117.33 198.411 117.33H197.212ZM192.506 116.154C192.506 116.154 192.506 116.083 192.506 115.941V114.742H193.918C193.918 114.742 193.918 114.813 193.918 114.955V116.154C193.918 116.154 193.847 116.154 193.705 116.154H192.506ZM197.212 116.154C197.212 116.154 197.212 116.083 197.212 115.941V114.742H198.624C198.624 114.742 198.624 114.813 198.624 114.955V116.154C198.624 116.154 198.553 116.154 198.411 116.154H197.212ZM192.506 114.978C192.506 114.978 192.506 114.906 192.506 114.764V113.566H193.918C193.918 113.566 193.918 113.637 193.918 113.779V114.978C193.918 114.978 193.847 114.978 193.705 114.978H192.506ZM197.212 114.978C197.212 114.978 197.212 114.906 197.212 114.764V113.566H198.624C198.624 113.566 198.624 113.637 198.624 113.779V114.978C198.624 114.978 198.553 114.978 198.411 114.978H197.212ZM192.506 113.801C192.506 113.801 192.506 113.73 192.506 113.588V112.389H193.918C193.918 112.389 193.918 112.46 193.918 112.603V113.801C193.918 113.801 193.847 113.801 193.705 113.801H192.506ZM197.212 113.801C197.212 113.801 197.212 113.73 197.212 113.588V112.389H198.624C198.624 112.389 198.624 112.46 198.624 112.603V113.801C198.624 113.801 198.553 113.801 198.411 113.801H197.212ZM192.506 112.625C192.506 112.625 192.506 112.554 192.506 112.411V111.213H193.918C193.918 111.213 193.918 111.284 193.918 111.426V112.625C193.918 112.625 193.847 112.625 193.705 112.625H192.506ZM197.212 112.625C197.212 112.625 197.212 112.554 197.212 112.411V111.213H198.624C198.624 111.213 198.624 111.284 198.624 111.426V112.625C198.624 112.625 198.553 112.625 198.411 112.625H197.212ZM192.506 111.448C192.506 111.448 192.506 111.377 192.506 111.235V110.036H193.918C193.918 110.036 193.918 110.107 193.918 110.25V111.448C193.918 111.448 193.847 111.448 193.705 111.448H192.506ZM197.212 111.448C197.212 111.448 197.212 111.377 197.212 111.235V110.036H198.624C198.624 110.036 198.624 110.107 198.624 110.25V111.448C198.624 111.448 198.553 111.448 198.411 111.448H197.212ZM192.506 110.272C192.506 110.272 192.506 110.201 192.506 110.058V108.86H193.918C193.918 108.86 193.918 108.931 193.918 109.073V110.272C193.918 110.272 193.847 110.272 193.705 110.272H192.506ZM197.212 110.272C197.212 110.272 197.212 110.201 197.212 110.058V108.86H198.624C198.624 108.86 198.624 108.931 198.624 109.073V110.272C198.624 110.272 198.553 110.272 198.411 110.272H197.212Z" fill="#FF7A86"/>
<path d="M179.557 118.507C179.557 118.507 179.557 118.436 179.557 118.294V117.095H180.969C180.969 117.095 180.969 117.166 180.969 117.308V118.507C180.969 118.507 180.898 118.507 180.756 118.507H179.557ZM184.263 118.507C184.263 118.507 184.263 118.436 184.263 118.294V117.095H185.675C185.675 117.095 185.675 117.166 185.675 117.308V118.507C185.675 118.507 185.604 118.507 185.461 118.507H184.263ZM188.969 118.507C188.969 118.507 188.969 118.436 188.969 118.294V117.095H190.381C190.381 117.095 190.381 117.166 190.381 117.308V118.507C190.381 118.507 190.31 118.507 190.167 118.507H188.969ZM179.557 117.33C179.557 117.33 179.557 117.259 179.557 117.117V115.919H180.969C180.969 115.919 180.969 115.99 180.969 116.132V117.33C180.969 117.33 180.898 117.33 180.756 117.33H179.557ZM184.263 117.33C184.263 117.33 184.263 117.259 184.263 117.117V115.919H185.675C185.675 115.919 185.675 115.99 185.675 116.132V117.33C185.675 117.33 185.604 117.33 185.461 117.33H184.263ZM188.969 117.33C188.969 117.33 188.969 117.259 188.969 117.117V115.919H190.381C190.381 115.919 190.381 115.99 190.381 116.132V117.33C190.381 117.33 190.31 117.33 190.167 117.33H188.969ZM179.557 116.154C179.557 116.154 179.557 116.083 179.557 115.941V114.742H180.969C180.969 114.742 180.969 114.813 180.969 114.955V116.154C180.969 116.154 180.898 116.154 180.756 116.154H179.557ZM184.263 116.154C184.263 116.154 184.263 116.083 184.263 115.941V114.742H185.675C185.675 114.742 185.675 114.813 185.675 114.955V116.154C185.675 116.154 185.604 116.154 185.461 116.154H184.263ZM188.969 116.154C188.969 116.154 188.969 116.083 188.969 115.941V114.742H190.381C190.381 114.742 190.381 114.813 190.381 114.955V116.154C190.381 116.154 190.31 116.154 190.167 116.154H188.969ZM179.557 114.978C179.557 114.978 179.557 114.906 179.557 114.764V113.566H180.969C180.969 113.566 180.969 113.637 180.969 113.779V114.978C180.969 114.978 180.898 114.978 180.756 114.978H179.557ZM184.263 114.978C184.263 114.978 184.263 114.906 184.263 114.764V113.566H185.675C185.675 113.566 185.675 113.637 185.675 113.779V114.978C185.675 114.978 185.604 114.978 185.461 114.978H184.263ZM188.969 114.978C188.969 114.978 188.969 114.906 188.969 114.764V113.566H190.381C190.381 113.566 190.381 113.637 190.381 113.779V114.978C190.381 114.978 190.31 114.978 190.167 114.978H188.969ZM179.557 113.801C179.557 113.801 179.557 113.73 179.557 113.588V112.389H180.969C180.969 112.389 180.969 112.46 180.969 112.603V113.801C180.969 113.801 180.898 113.801 180.756 113.801H179.557ZM184.263 113.801C184.263 113.801 184.263 113.73 184.263 113.588V112.389H185.675C185.675 112.389 185.675 112.46 185.675 112.603V113.801C185.675 113.801 185.604 113.801 185.461 113.801H184.263ZM188.969 113.801C188.969 113.801 188.969 113.73 188.969 113.588V112.389H190.381C190.381 112.389 190.381 112.46 190.381 112.603V113.801C190.381 113.801 190.31 113.801 190.167 113.801H188.969ZM179.557 112.625C179.557 112.625 179.557 112.554 179.557 112.411V111.213H180.969C180.969 111.213 180.969 111.284 180.969 111.426V112.625C180.969 112.625 180.898 112.625 180.756 112.625H179.557ZM184.263 112.625C184.263 112.625 184.263 112.554 184.263 112.411V111.213H185.675C185.675 111.213 185.675 111.284 185.675 111.426V112.625C185.675 112.625 185.604 112.625 185.461 112.625H184.263ZM188.969 112.625C188.969 112.625 188.969 112.554 188.969 112.411V111.213H190.381C190.381 111.213 190.381 111.284 190.381 111.426V112.625C190.381 112.625 190.31 112.625 190.167 112.625H188.969ZM179.557 111.448C179.557 111.448 179.557 111.377 179.557 111.235V110.036H180.969C180.969 110.036 180.969 110.107 180.969 110.25V111.448C180.969 111.448 180.898 111.448 180.756 111.448H179.557ZM180.734 111.448C180.734 111.448 180.734 111.377 180.734 111.235V110.036H182.145C182.145 110.036 182.145 110.107 182.145 110.25V111.448C182.145 111.448 182.074 111.448 181.932 111.448H180.734ZM184.263 111.448C184.263 111.448 184.263 111.377 184.263 111.235V110.036H185.675C185.675 110.036 185.675 110.107 185.675 110.25V111.448C185.675 111.448 185.604 111.448 185.461 111.448H184.263ZM185.439 111.448C185.439 111.448 185.439 111.377 185.439 111.235V110.036H186.851C186.851 110.036 186.851 110.107 186.851 110.25V111.448C186.851 111.448 186.78 111.448 186.638 111.448H185.439ZM188.969 111.448C188.969 111.448 188.969 111.377 188.969 111.235V110.036H190.381C190.381 110.036 190.381 110.107 190.381 110.25V111.448C190.381 111.448 190.31 111.448 190.167 111.448H188.969ZM179.557 110.272C179.557 110.272 179.557 110.201 179.557 110.058V108.86H180.969C180.969 108.86 180.969 108.931 180.969 109.073V110.272C180.969 110.272 180.898 110.272 180.756 110.272H179.557ZM181.91 110.272C181.91 110.272 181.91 110.201 181.91 110.058V108.86H183.322C183.322 108.86 183.322 108.931 183.322 109.073V110.272C183.322 110.272 183.251 110.272 183.109 110.272H181.91ZM183.086 110.272C183.086 110.272 183.086 110.201 183.086 110.058V108.86H184.498C184.498 108.86 184.498 108.931 184.498 109.073V110.272C184.498 110.272 184.427 110.272 184.285 110.272H183.086ZM186.616 110.272C186.616 110.272 186.616 110.201 186.616 110.058V108.86H188.028C188.028 108.86 188.028 108.931 188.028 109.073V110.272C188.028 110.272 187.957 110.272 187.814 110.272H186.616ZM187.792 110.272C187.792 110.272 187.792 110.201 187.792 110.058V108.86H189.204C189.204 108.86 189.204 108.931 189.204 109.073V110.272C189.204 110.272 189.133 110.272 188.991 110.272H187.792Z" fill="#FF7A86"/>
<path d="M169.542 118.507C169.542 118.507 169.542 118.436 169.542 118.294V117.095H170.954C170.954 117.095 170.954 117.166 170.954 117.308V118.507C170.954 118.507 170.883 118.507 170.741 118.507H169.542ZM170.719 118.507C170.719 118.507 170.719 118.436 170.719 118.294V117.095H172.13C172.13 117.095 172.13 117.166 172.13 117.308V118.507C172.13 118.507 172.059 118.507 171.917 118.507H170.719ZM171.895 118.507C171.895 118.507 171.895 118.436 171.895 118.294V117.095H173.307C173.307 117.095 173.307 117.166 173.307 117.308V118.507C173.307 118.507 173.236 118.507 173.094 118.507H171.895ZM168.366 117.33C168.366 117.33 168.366 117.259 168.366 117.117V115.919H169.777C169.777 115.919 169.777 115.99 169.777 116.132V117.33C169.777 117.33 169.706 117.33 169.564 117.33H168.366ZM173.072 117.33C173.072 117.33 173.072 117.259 173.072 117.117V115.919H174.483C174.483 115.919 174.483 115.99 174.483 116.132V117.33C174.483 117.33 174.412 117.33 174.27 117.33H173.072ZM168.366 116.154C168.366 116.154 168.366 116.083 168.366 115.941V114.742H169.777C169.777 114.742 169.777 114.813 169.777 114.955V116.154C169.777 116.154 169.706 116.154 169.564 116.154H168.366ZM168.366 114.978C168.366 114.978 168.366 114.906 168.366 114.764V113.566H169.777C169.777 113.566 169.777 113.637 169.777 113.779V114.978C169.777 114.978 169.706 114.978 169.564 114.978H168.366ZM168.366 113.801C168.366 113.801 168.366 113.73 168.366 113.588V112.389H169.777C169.777 112.389 169.777 112.46 169.777 112.603V113.801C169.777 113.801 169.706 113.801 169.564 113.801H168.366ZM169.542 113.801C169.542 113.801 169.542 113.73 169.542 113.588V112.389H170.954C170.954 112.389 170.954 112.46 170.954 112.603V113.801C170.954 113.801 170.883 113.801 170.741 113.801H169.542ZM170.719 113.801C170.719 113.801 170.719 113.73 170.719 113.588V112.389H172.13C172.13 112.389 172.13 112.46 172.13 112.603V113.801C172.13 113.801 172.059 113.801 171.917 113.801H170.719ZM171.895 113.801C171.895 113.801 171.895 113.73 171.895 113.588V112.389H173.307C173.307 112.389 173.307 112.46 173.307 112.603V113.801C173.307 113.801 173.236 113.801 173.094 113.801H171.895ZM173.072 113.801C173.072 113.801 173.072 113.73 173.072 113.588V112.389H174.483C174.483 112.389 174.483 112.46 174.483 112.603V113.801C174.483 113.801 174.412 113.801 174.27 113.801H173.072ZM168.366 112.625C168.366 112.625 168.366 112.554 168.366 112.411V111.213H169.777C169.777 111.213 169.777 111.284 169.777 111.426V112.625C169.777 112.625 169.706 112.625 169.564 112.625H168.366ZM173.072 112.625C173.072 112.625 173.072 112.554 173.072 112.411V111.213H174.483C174.483 111.213 174.483 111.284 174.483 111.426V112.625C174.483 112.625 174.412 112.625 174.27 112.625H173.072ZM168.366 111.448C168.366 111.448 168.366 111.377 168.366 111.235V110.036H169.777C169.777 110.036 169.777 110.107 169.777 110.25V111.448C169.777 111.448 169.706 111.448 169.564 111.448H168.366ZM173.072 111.448C173.072 111.448 173.072 111.377 173.072 111.235V110.036H174.483C174.483 110.036 174.483 110.107 174.483 110.25V111.448C174.483 111.448 174.412 111.448 174.27 111.448H173.072ZM169.542 110.272C169.542 110.272 169.542 110.201 169.542 110.058V108.86H170.954C170.954 108.86 170.954 108.931 170.954 109.073V110.272C170.954 110.272 170.883 110.272 170.741 110.272H169.542ZM170.719 110.272C170.719 110.272 170.719 110.201 170.719 110.058V108.86H172.13C172.13 108.86 172.13 108.931 172.13 109.073V110.272C172.13 110.272 172.059 110.272 171.917 110.272H170.719ZM171.895 110.272C171.895 110.272 171.895 110.201 171.895 110.058V108.86H173.307C173.307 108.86 173.307 108.931 173.307 109.073V110.272C173.307 110.272 173.236 110.272 173.094 110.272H171.895Z" fill="#FF7A86"/>
<path d="M160.123 118.507C160.123 118.507 160.123 118.436 160.123 118.294V117.095H161.535C161.535 117.095 161.535 117.166 161.535 117.308V118.507C161.535 118.507 161.464 118.507 161.322 118.507H160.123ZM164.829 118.507C164.829 118.507 164.829 118.436 164.829 118.294V117.095H166.241C166.241 117.095 166.241 117.166 166.241 117.308V118.507C166.241 118.507 166.17 118.507 166.028 118.507H164.829ZM160.123 117.33C160.123 117.33 160.123 117.259 160.123 117.117V115.919H161.535C161.535 115.919 161.535 115.99 161.535 116.132V117.33C161.535 117.33 161.464 117.33 161.322 117.33H160.123ZM164.829 117.33C164.829 117.33 164.829 117.259 164.829 117.117V115.919H166.241C166.241 115.919 166.241 115.99 166.241 116.132V117.33C166.241 117.33 166.17 117.33 166.028 117.33H164.829ZM160.123 116.154C160.123 116.154 160.123 116.083 160.123 115.941V114.742H161.535C161.535 114.742 161.535 114.813 161.535 114.955V116.154C161.535 116.154 161.464 116.154 161.322 116.154H160.123ZM164.829 116.154C164.829 116.154 164.829 116.083 164.829 115.941V114.742H166.241C166.241 114.742 166.241 114.813 166.241 114.955V116.154C166.241 116.154 166.17 116.154 166.028 116.154H164.829ZM160.123 114.978C160.123 114.978 160.123 114.906 160.123 114.764V113.566H161.535C161.535 113.566 161.535 113.637 161.535 113.779V114.978C161.535 114.978 161.464 114.978 161.322 114.978H160.123ZM164.829 114.978C164.829 114.978 164.829 114.906 164.829 114.764V113.566H166.241C166.241 113.566 166.241 113.637 166.241 113.779V114.978C166.241 114.978 166.17 114.978 166.028 114.978H164.829ZM160.123 113.801C160.123 113.801 160.123 113.73 160.123 113.588V112.389H161.535C161.535 112.389 161.535 112.46 161.535 112.603V113.801C161.535 113.801 161.464 113.801 161.322 113.801H160.123ZM164.829 113.801C164.829 113.801 164.829 113.73 164.829 113.588V112.389H166.241C166.241 112.389 166.241 112.46 166.241 112.603V113.801C166.241 113.801 166.17 113.801 166.028 113.801H164.829ZM160.123 112.625C160.123 112.625 160.123 112.554 160.123 112.411V111.213H161.535C161.535 111.213 161.535 111.284 161.535 111.426V112.625C161.535 112.625 161.464 112.625 161.322 112.625H160.123ZM164.829 112.625C164.829 112.625 164.829 112.554 164.829 112.411V111.213H166.241C166.241 111.213 166.241 111.284 166.241 111.426V112.625C166.241 112.625 166.17 112.625 166.028 112.625H164.829ZM160.123 111.448C160.123 111.448 160.123 111.377 160.123 111.235V110.036H161.535C161.535 110.036 161.535 110.107 161.535 110.25V111.448C161.535 111.448 161.464 111.448 161.322 111.448H160.123ZM161.3 111.448C161.3 111.448 161.3 111.377 161.3 111.235V110.036H162.712C162.712 110.036 162.712 110.107 162.712 110.25V111.448C162.712 111.448 162.641 111.448 162.498 111.448H161.3ZM164.829 111.448C164.829 111.448 164.829 111.377 164.829 111.235V110.036H166.241C166.241 110.036 166.241 110.107 166.241 110.25V111.448C166.241 111.448 166.17 111.448 166.028 111.448H164.829ZM160.123 110.272C160.123 110.272 160.123 110.201 160.123 110.058V108.86H161.535C161.535 108.86 161.535 108.931 161.535 109.073V110.272C161.535 110.272 161.464 110.272 161.322 110.272H160.123ZM162.476 110.272C162.476 110.272 162.476 110.201 162.476 110.058V108.86H163.888C163.888 108.86 163.888 108.931 163.888 109.073V110.272C163.888 110.272 163.817 110.272 163.675 110.272H162.476ZM163.653 110.272C163.653 110.272 163.653 110.201 163.653 110.058V108.86H165.065C165.065 108.86 165.065 108.931 165.065 109.073V110.272C165.065 110.272 164.994 110.272 164.851 110.272H163.653ZM160.123 109.095C160.123 109.095 160.123 109.024 160.123 108.882V107.683H161.535C161.535 107.683 161.535 107.755 161.535 107.897V109.095C161.535 109.095 161.464 109.095 161.322 109.095H160.123ZM160.123 107.919C160.123 107.919 160.123 107.848 160.123 107.705V106.507H161.535C161.535 106.507 161.535 106.578 161.535 106.72V107.919C161.535 107.919 161.464 107.919 161.322 107.919H160.123ZM160.123 106.742C160.123 106.742 160.123 106.671 160.123 106.529V105.33H161.535C161.535 105.33 161.535 105.402 161.535 105.544V106.742C161.535 106.742 161.464 106.742 161.322 106.742H160.123ZM160.123 105.566C160.123 105.566 160.123 105.495 160.123 105.353V104.154H161.535C161.535 104.154 161.535 104.225 161.535 104.367V105.566C161.535 105.566 161.464 105.566 161.322 105.566H160.123Z" fill="#FF7A86"/>
<path d="M156.009 118.507C156.009 118.507 156.009 118.436 156.009 118.294V117.095H157.421C157.421 117.095 157.421 117.166 157.421 117.308V118.507C157.421 118.507 157.35 118.507 157.208 118.507H156.009ZM157.186 118.507C157.186 118.507 157.186 118.436 157.186 118.294V117.095H158.598C158.598 117.095 158.598 117.166 158.598 117.308V118.507C158.598 118.507 158.526 118.507 158.384 118.507H157.186ZM154.833 117.33C154.833 117.33 154.833 117.259 154.833 117.117V115.919H156.245C156.245 115.919 156.245 115.99 156.245 116.132V117.33C156.245 117.33 156.173 117.33 156.031 117.33H154.833ZM154.833 116.154C154.833 116.154 154.833 116.083 154.833 115.941V114.742H156.245C156.245 114.742 156.245 114.813 156.245 114.955V116.154C156.245 116.154 156.173 116.154 156.031 116.154H154.833ZM154.833 114.978C154.833 114.978 154.833 114.906 154.833 114.764V113.566H156.245C156.245 113.566 156.245 113.637 156.245 113.779V114.978C156.245 114.978 156.173 114.978 156.031 114.978H154.833ZM154.833 113.801C154.833 113.801 154.833 113.73 154.833 113.588V112.389H156.245C156.245 112.389 156.245 112.46 156.245 112.603V113.801C156.245 113.801 156.173 113.801 156.031 113.801H154.833ZM154.833 112.625C154.833 112.625 154.833 112.554 154.833 112.411V111.213H156.245C156.245 111.213 156.245 111.284 156.245 111.426V112.625C156.245 112.625 156.173 112.625 156.031 112.625H154.833ZM154.833 111.448C154.833 111.448 154.833 111.377 154.833 111.235V110.036H156.245C156.245 110.036 156.245 110.107 156.245 110.25V111.448C156.245 111.448 156.173 111.448 156.031 111.448H154.833ZM153.656 110.272C153.656 110.272 153.656 110.201 153.656 110.058V108.86H155.068C155.068 108.86 155.068 108.931 155.068 109.073V110.272C155.068 110.272 154.997 110.272 154.855 110.272H153.656ZM154.833 110.272C154.833 110.272 154.833 110.201 154.833 110.058V108.86H156.245C156.245 108.86 156.245 108.931 156.245 109.073V110.272C156.245 110.272 156.173 110.272 156.031 110.272H154.833ZM156.009 110.272C156.009 110.272 156.009 110.201 156.009 110.058V108.86H157.421C157.421 108.86 157.421 108.931 157.421 109.073V110.272C157.421 110.272 157.35 110.272 157.208 110.272H156.009ZM157.186 110.272C157.186 110.272 157.186 110.201 157.186 110.058V108.86H158.598C158.598 108.86 158.598 108.931 158.598 109.073V110.272C158.598 110.272 158.526 110.272 158.384 110.272H157.186ZM154.833 109.095C154.833 109.095 154.833 109.024 154.833 108.882V107.683H156.245C156.245 107.683 156.245 107.755 156.245 107.897V109.095C156.245 109.095 156.173 109.095 156.031 109.095H154.833ZM154.833 107.919C154.833 107.919 154.833 107.848 154.833 107.705V106.507H156.245C156.245 106.507 156.245 106.578 156.245 106.72V107.919C156.245 107.919 156.173 107.919 156.031 107.919H154.833Z" fill="#FF7A86"/>
<path d="M147.174 118.507C147.174 118.507 147.174 118.436 147.174 118.294V117.095H148.586C148.586 117.095 148.586 117.166 148.586 117.308V118.507C148.586 118.507 148.515 118.507 148.373 118.507H147.174ZM147.174 117.33C147.174 117.33 147.174 117.259 147.174 117.117V115.919H148.586C148.586 115.919 148.586 115.99 148.586 116.132V117.33C148.586 117.33 148.515 117.33 148.373 117.33H147.174ZM147.174 116.154C147.174 116.154 147.174 116.083 147.174 115.941V114.742H148.586C148.586 114.742 148.586 114.813 148.586 114.955V116.154C148.586 116.154 148.515 116.154 148.373 116.154H147.174ZM147.174 114.978C147.174 114.978 147.174 114.906 147.174 114.764V113.566H148.586C148.586 113.566 148.586 113.637 148.586 113.779V114.978C148.586 114.978 148.515 114.978 148.373 114.978H147.174ZM147.174 113.801C147.174 113.801 147.174 113.73 147.174 113.588V112.389H148.586C148.586 112.389 148.586 112.46 148.586 112.603V113.801C148.586 113.801 148.515 113.801 148.373 113.801H147.174ZM147.174 112.625C147.174 112.625 147.174 112.554 147.174 112.411V111.213H148.586C148.586 111.213 148.586 111.284 148.586 111.426V112.625C148.586 112.625 148.515 112.625 148.373 112.625H147.174ZM147.174 111.448C147.174 111.448 147.174 111.377 147.174 111.235V110.036H148.586C148.586 110.036 148.586 110.107 148.586 110.25V111.448C148.586 111.448 148.515 111.448 148.373 111.448H147.174ZM147.174 110.272C147.174 110.272 147.174 110.201 147.174 110.058V108.86H148.586C148.586 108.86 148.586 108.931 148.586 109.073V110.272C148.586 110.272 148.515 110.272 148.373 110.272H147.174ZM147.174 109.095C147.174 109.095 147.174 109.024 147.174 108.882V107.683H148.586C148.586 107.683 148.586 107.755 148.586 107.897V109.095C148.586 109.095 148.515 109.095 148.373 109.095H147.174ZM147.174 107.919C147.174 107.919 147.174 107.848 147.174 107.705V106.507H148.586C148.586 106.507 148.586 106.578 148.586 106.72V107.919C148.586 107.919 148.515 107.919 148.373 107.919H147.174ZM147.174 106.742C147.174 106.742 147.174 106.671 147.174 106.529V105.33H148.586C148.586 105.33 148.586 105.402 148.586 105.544V106.742C148.586 106.742 148.515 106.742 148.373 106.742H147.174ZM147.174 105.566C147.174 105.566 147.174 105.495 147.174 105.353V104.154H148.586C148.586 104.154 148.586 104.225 148.586 104.367V105.566C148.586 105.566 148.515 105.566 148.373 105.566H147.174Z" fill="#FF7A86"/>
<path d="M140.695 118.507C140.695 118.507 140.695 118.436 140.695 118.294V117.095H142.106C142.106 117.095 142.106 117.166 142.106 117.308V118.507C142.106 118.507 142.035 118.507 141.893 118.507H140.695ZM141.871 118.507C141.871 118.507 141.871 118.436 141.871 118.294V117.095H143.283C143.283 117.095 143.283 117.166 143.283 117.308V118.507C143.283 118.507 143.212 118.507 143.069 118.507H141.871ZM143.047 118.507C143.047 118.507 143.047 118.436 143.047 118.294V117.095H144.459C144.459 117.095 144.459 117.166 144.459 117.308V118.507C144.459 118.507 144.388 118.507 144.246 118.507H143.047ZM139.518 117.33C139.518 117.33 139.518 117.259 139.518 117.117V115.919H140.93C140.93 115.919 140.93 115.99 140.93 116.132V117.33C140.93 117.33 140.859 117.33 140.717 117.33H139.518ZM144.224 117.33C144.224 117.33 144.224 117.259 144.224 117.117V115.919H145.636C145.636 115.919 145.636 115.99 145.636 116.132V117.33C145.636 117.33 145.565 117.33 145.422 117.33H144.224ZM139.518 116.154C139.518 116.154 139.518 116.083 139.518 115.941V114.742H140.93C140.93 114.742 140.93 114.813 140.93 114.955V116.154C140.93 116.154 140.859 116.154 140.717 116.154H139.518ZM139.518 114.978C139.518 114.978 139.518 114.906 139.518 114.764V113.566H140.93C140.93 113.566 140.93 113.637 140.93 113.779V114.978C140.93 114.978 140.859 114.978 140.717 114.978H139.518ZM139.518 113.801C139.518 113.801 139.518 113.73 139.518 113.588V112.389H140.93C140.93 112.389 140.93 112.46 140.93 112.603V113.801C140.93 113.801 140.859 113.801 140.717 113.801H139.518ZM140.695 113.801C140.695 113.801 140.695 113.73 140.695 113.588V112.389H142.106C142.106 112.389 142.106 112.46 142.106 112.603V113.801C142.106 113.801 142.035 113.801 141.893 113.801H140.695ZM141.871 113.801C141.871 113.801 141.871 113.73 141.871 113.588V112.389H143.283C143.283 112.389 143.283 112.46 143.283 112.603V113.801C143.283 113.801 143.212 113.801 143.069 113.801H141.871ZM143.047 113.801C143.047 113.801 143.047 113.73 143.047 113.588V112.389H144.459C144.459 112.389 144.459 112.46 144.459 112.603V113.801C144.459 113.801 144.388 113.801 144.246 113.801H143.047ZM144.224 113.801C144.224 113.801 144.224 113.73 144.224 113.588V112.389H145.636C145.636 112.389 145.636 112.46 145.636 112.603V113.801C145.636 113.801 145.565 113.801 145.422 113.801H144.224ZM139.518 112.625C139.518 112.625 139.518 112.554 139.518 112.411V111.213H140.93C140.93 111.213 140.93 111.284 140.93 111.426V112.625C140.93 112.625 140.859 112.625 140.717 112.625H139.518ZM144.224 112.625C144.224 112.625 144.224 112.554 144.224 112.411V111.213H145.636C145.636 111.213 145.636 111.284 145.636 111.426V112.625C145.636 112.625 145.565 112.625 145.422 112.625H144.224ZM139.518 111.448C139.518 111.448 139.518 111.377 139.518 111.235V110.036H140.93C140.93 110.036 140.93 110.107 140.93 110.25V111.448C140.93 111.448 140.859 111.448 140.717 111.448H139.518ZM144.224 111.448C144.224 111.448 144.224 111.377 144.224 111.235V110.036H145.636C145.636 110.036 145.636 110.107 145.636 110.25V111.448C145.636 111.448 145.565 111.448 145.422 111.448H144.224ZM140.695 110.272C140.695 110.272 140.695 110.201 140.695 110.058V108.86H142.106C142.106 108.86 142.106 108.931 142.106 109.073V110.272C142.106 110.272 142.035 110.272 141.893 110.272H140.695ZM141.871 110.272C141.871 110.272 141.871 110.201 141.871 110.058V108.86H143.283C143.283 108.86 143.283 108.931 143.283 109.073V110.272C143.283 110.272 143.212 110.272 143.069 110.272H141.871ZM143.047 110.272C143.047 110.272 143.047 110.201 143.047 110.058V108.86H144.459C144.459 108.86 144.459 108.931 144.459 109.073V110.272C144.459 110.272 144.388 110.272 144.246 110.272H143.047Z" fill="#FF7A86"/>
<path d="M133.038 118.507C133.038 118.507 133.038 118.436 133.038 118.294V117.095H134.45C134.45 117.095 134.45 117.166 134.45 117.308V118.507C134.45 118.507 134.379 118.507 134.237 118.507H133.038ZM134.215 118.507C134.215 118.507 134.215 118.436 134.215 118.294V117.095H135.626C135.626 117.095 135.626 117.166 135.626 117.308V118.507C135.626 118.507 135.555 118.507 135.413 118.507H134.215ZM135.391 118.507C135.391 118.507 135.391 118.436 135.391 118.294V117.095H136.803C136.803 117.095 136.803 117.166 136.803 117.308V118.507C136.803 118.507 136.732 118.507 136.59 118.507H135.391ZM131.862 117.33C131.862 117.33 131.862 117.259 131.862 117.117V115.919H133.274C133.274 115.919 133.274 115.99 133.274 116.132V117.33C133.274 117.33 133.202 117.33 133.06 117.33H131.862ZM136.568 117.33C136.568 117.33 136.568 117.259 136.568 117.117V115.919H137.979C137.979 115.919 137.979 115.99 137.979 116.132V117.33C137.979 117.33 137.908 117.33 137.766 117.33H136.568ZM131.862 116.154C131.862 116.154 131.862 116.083 131.862 115.941V114.742H133.274C133.274 114.742 133.274 114.813 133.274 114.955V116.154C133.274 116.154 133.202 116.154 133.06 116.154H131.862ZM131.862 114.978C131.862 114.978 131.862 114.906 131.862 114.764V113.566H133.274C133.274 113.566 133.274 113.637 133.274 113.779V114.978C133.274 114.978 133.202 114.978 133.06 114.978H131.862ZM131.862 113.801C131.862 113.801 131.862 113.73 131.862 113.588V112.389H133.274C133.274 112.389 133.274 112.46 133.274 112.603V113.801C133.274 113.801 133.202 113.801 133.06 113.801H131.862ZM133.038 113.801C133.038 113.801 133.038 113.73 133.038 113.588V112.389H134.45C134.45 112.389 134.45 112.46 134.45 112.603V113.801C134.45 113.801 134.379 113.801 134.237 113.801H133.038ZM134.215 113.801C134.215 113.801 134.215 113.73 134.215 113.588V112.389H135.626C135.626 112.389 135.626 112.46 135.626 112.603V113.801C135.626 113.801 135.555 113.801 135.413 113.801H134.215ZM135.391 113.801C135.391 113.801 135.391 113.73 135.391 113.588V112.389H136.803C136.803 112.389 136.803 112.46 136.803 112.603V113.801C136.803 113.801 136.732 113.801 136.59 113.801H135.391ZM136.568 113.801C136.568 113.801 136.568 113.73 136.568 113.588V112.389H137.979C137.979 112.389 137.979 112.46 137.979 112.603V113.801C137.979 113.801 137.908 113.801 137.766 113.801H136.568ZM131.862 112.625C131.862 112.625 131.862 112.554 131.862 112.411V111.213H133.274C133.274 111.213 133.274 111.284 133.274 111.426V112.625C133.274 112.625 133.202 112.625 133.06 112.625H131.862ZM136.568 112.625C136.568 112.625 136.568 112.554 136.568 112.411V111.213H137.979C137.979 111.213 137.979 111.284 137.979 111.426V112.625C137.979 112.625 137.908 112.625 137.766 112.625H136.568ZM131.862 111.448C131.862 111.448 131.862 111.377 131.862 111.235V110.036H133.274C133.274 110.036 133.274 110.107 133.274 110.25V111.448C133.274 111.448 133.202 111.448 133.06 111.448H131.862ZM136.568 111.448C136.568 111.448 136.568 111.377 136.568 111.235V110.036H137.979C137.979 110.036 137.979 110.107 137.979 110.25V111.448C137.979 111.448 137.908 111.448 137.766 111.448H136.568ZM133.038 110.272C133.038 110.272 133.038 110.201 133.038 110.058V108.86H134.45C134.45 108.86 134.45 108.931 134.45 109.073V110.272C134.45 110.272 134.379 110.272 134.237 110.272H133.038ZM134.215 110.272C134.215 110.272 134.215 110.201 134.215 110.058V108.86H135.626C135.626 108.86 135.626 108.931 135.626 109.073V110.272C135.626 110.272 135.555 110.272 135.413 110.272H134.215ZM135.391 110.272C135.391 110.272 135.391 110.201 135.391 110.058V108.86H136.803C136.803 108.86 136.803 108.931 136.803 109.073V110.272C136.803 110.272 136.732 110.272 136.59 110.272H135.391Z" fill="#FF7A86"/>
<path d="M127.157 118.507C127.157 118.507 127.157 118.436 127.157 118.294V117.095H128.569C128.569 117.095 128.569 117.166 128.569 117.308V118.507C128.569 118.507 128.498 118.507 128.356 118.507H127.157ZM127.157 117.33C127.157 117.33 127.157 117.259 127.157 117.117V115.919H128.569C128.569 115.919 128.569 115.99 128.569 116.132V117.33C128.569 117.33 128.498 117.33 128.356 117.33H127.157ZM127.157 116.154C127.157 116.154 127.157 116.083 127.157 115.941V114.742H128.569C128.569 114.742 128.569 114.813 128.569 114.955V116.154C128.569 116.154 128.498 116.154 128.356 116.154H127.157ZM127.157 114.978C127.157 114.978 127.157 114.906 127.157 114.764V113.566H128.569C128.569 113.566 128.569 113.637 128.569 113.779V114.978C128.569 114.978 128.498 114.978 128.356 114.978H127.157ZM127.157 113.801C127.157 113.801 127.157 113.73 127.157 113.588V112.389H128.569C128.569 112.389 128.569 112.46 128.569 112.603V113.801C128.569 113.801 128.498 113.801 128.356 113.801H127.157ZM127.157 112.625C127.157 112.625 127.157 112.554 127.157 112.411V111.213H128.569C128.569 111.213 128.569 111.284 128.569 111.426V112.625C128.569 112.625 128.498 112.625 128.356 112.625H127.157ZM127.157 111.448C127.157 111.448 127.157 111.377 127.157 111.235V110.036H128.569C128.569 110.036 128.569 110.107 128.569 110.25V111.448C128.569 111.448 128.498 111.448 128.356 111.448H127.157ZM125.981 110.272C125.981 110.272 125.981 110.201 125.981 110.058V108.86H127.392C127.392 108.86 127.392 108.931 127.392 109.073V110.272C127.392 110.272 127.321 110.272 127.179 110.272H125.981ZM127.157 110.272C127.157 110.272 127.157 110.201 127.157 110.058V108.86H128.569C128.569 108.86 128.569 108.931 128.569 109.073V110.272C128.569 110.272 128.498 110.272 128.356 110.272H127.157ZM128.334 110.272C128.334 110.272 128.334 110.201 128.334 110.058V108.86H129.745C129.745 108.86 129.745 108.931 129.745 109.073V110.272C129.745 110.272 129.674 110.272 129.532 110.272H128.334ZM129.51 110.272C129.51 110.272 129.51 110.201 129.51 110.058V108.86H130.922C130.922 108.86 130.922 108.931 130.922 109.073V110.272C130.922 110.272 130.851 110.272 130.709 110.272H129.51ZM127.157 109.095C127.157 109.095 127.157 109.024 127.157 108.882V107.683H128.569C128.569 107.683 128.569 107.755 128.569 107.897V109.095C128.569 109.095 128.498 109.095 128.356 109.095H127.157ZM127.157 107.919C127.157 107.919 127.157 107.848 127.157 107.705V106.507H128.569C128.569 106.507 128.569 106.578 128.569 106.72V107.919C128.569 107.919 128.498 107.919 128.356 107.919H127.157ZM127.157 106.742C127.157 106.742 127.157 106.671 127.157 106.529V105.33H128.569C128.569 105.33 128.569 105.402 128.569 105.544V106.742C128.569 106.742 128.498 106.742 128.356 106.742H127.157ZM128.334 105.566C128.334 105.566 128.334 105.495 128.334 105.353V104.154H129.745C129.745 104.154 129.745 104.225 129.745 104.367V105.566C129.745 105.566 129.674 105.566 129.532 105.566H128.334ZM129.51 105.566C129.51 105.566 129.51 105.495 129.51 105.353V104.154H130.922C130.922 104.154 130.922 104.225 130.922 104.367V105.566C130.922 105.566 130.851 105.566 130.709 105.566H129.51ZM130.687 105.566C130.687 105.566 130.687 105.495 130.687 105.353V104.154H132.098C132.098 104.154 132.098 104.225 132.098 104.367V105.566C132.098 105.566 132.027 105.566 131.885 105.566H130.687Z" fill="#FF7A86"/>
<path d="M20.7259 115.889C21.4115 115.741 22.1252 115.963 22.6059 116.474L30.4812 124.846L41.9768 125.014C42.678 125.024 43.3225 125.401 43.6755 126.007C44.0285 126.614 44.0383 127.361 43.7008 127.976L38.1709 138.055L41.5643 149.038C41.7714 149.708 41.6125 150.438 41.1451 150.961C40.6776 151.484 39.9698 151.724 39.2806 151.594L27.9865 149.448L18.5894 156.07C18.0159 156.474 17.2722 156.548 16.6303 156.265C15.9883 155.982 15.5412 155.384 15.4526 154.688L14.0014 143.284L4.80103 136.393C4.23959 135.972 3.93944 135.287 4.01023 134.589C4.08113 133.891 4.51286 133.282 5.14732 132.982L15.5446 128.078L19.2557 117.199C19.4821 116.535 20.0402 116.038 20.7259 115.889ZM19.0572 130.173C18.8823 130.685 18.5074 131.105 18.0179 131.336L9.85872 135.182L17.0787 140.59C17.512 140.915 17.7955 141.401 17.8639 141.938L19.0013 150.885L26.3753 145.691L26.5458 145.583C26.9551 145.353 27.435 145.273 27.9006 145.361L36.7603 147.043L34.0996 138.426C33.9398 137.908 33.9962 137.349 34.2564 136.874L38.5952 128.965L29.5767 128.835C29.0352 128.827 28.5197 128.6 28.1486 128.206L21.9681 121.636L19.0572 130.173Z" fill="#FF7A86"/>
<path d="M68.1833 144.568C68.7847 144.929 69.1532 145.58 69.154 146.281L69.1603 152.726L73.7956 157.207C74.3001 157.694 74.5121 158.411 74.3545 159.095C74.1968 159.778 73.6928 160.329 73.026 160.547L66.8964 162.545L64.0687 168.337C63.761 168.968 63.1456 169.391 62.4469 169.453C61.748 169.514 61.0677 169.205 60.6548 168.638L56.8605 163.426L50.4773 162.527C49.7826 162.429 49.1898 161.974 48.9154 161.328C48.6411 160.682 48.7257 159.94 49.1374 159.372L52.9209 154.152L51.8037 147.804C51.6821 147.114 51.9316 146.41 52.4608 145.949C52.9901 145.489 53.7226 145.339 54.3901 145.555L60.5225 147.54L66.2153 144.517C66.8348 144.187 67.5818 144.207 68.1833 144.568ZM61.6504 151.47C61.1722 151.724 60.6119 151.774 60.0967 151.607L56.3186 150.383L57.0069 154.294C57.1007 154.828 56.9742 155.377 56.6564 155.815L54.3262 159.028L58.2576 159.584L58.4557 159.622C58.9118 159.734 59.3166 160.004 59.5955 160.387L61.9325 163.595L63.6741 160.029C63.9117 159.542 64.3369 159.173 64.8518 159.005L68.6268 157.773L65.7715 155.014C65.3821 154.638 65.1615 154.12 65.161 153.578L65.1567 149.607L61.6504 151.47Z" fill="#FF7A86"/>
<path d="M378.344 4.72884C378.344 4.72884 378.347 4.73232 378.349 4.73437C378.352 4.73845 378.357 4.74424 378.363 4.75124C378.375 4.76549 378.391 4.78564 378.412 4.81138C378.454 4.86323 378.514 4.93832 378.59 5.03324C378.741 5.22307 378.955 5.49441 379.209 5.82877C379.717 6.49558 380.394 7.42277 381.068 8.45131C381.736 9.47151 382.429 10.6369 382.943 11.7754C383.422 12.8365 383.894 14.1866 383.772 15.4632C383.566 17.6207 382.084 19.5295 381.022 20.6867C380.444 21.3156 379.882 21.8372 379.465 22.2013C379.256 22.3844 379.08 22.5304 378.954 22.6328C378.89 22.6841 378.839 22.7251 378.802 22.7541C378.784 22.7686 378.769 22.7801 378.757 22.7888C378.752 22.7931 378.747 22.7969 378.744 22.7997C378.742 22.801 378.739 22.8034 378.739 22.8034L378.737 22.8047C378.737 22.8047 378.735 22.806 377.522 21.2156L378.735 22.8063C377.857 23.4757 376.602 23.3066 375.933 22.4287C375.263 21.5504 375.431 20.2947 376.31 19.6249C376.313 19.622 376.322 19.6162 376.333 19.6078C376.354 19.5909 376.389 19.5634 376.435 19.526C376.528 19.4511 376.665 19.3368 376.833 19.19C377.171 18.894 377.622 18.4754 378.075 17.9821C379.073 16.8948 379.719 15.8318 379.791 15.083C379.807 14.9061 379.726 14.3703 379.297 13.4209C378.903 12.5482 378.333 11.5764 377.721 10.6417C377.649 10.5313 377.575 10.423 377.503 10.3151L371.666 28.3039C371.652 28.347 371.633 28.3882 371.617 28.4297C371.6 28.4876 371.587 28.5469 371.568 28.6049C370.899 30.6666 369.136 31.9205 367.25 32.4725C365.352 33.0279 363.118 32.9592 360.956 32.2578C358.794 31.5563 356.946 30.3002 355.735 28.7362C354.532 27.1818 353.841 25.1315 354.51 23.0698C355.179 21.0083 356.942 19.755 358.829 19.2031C360.727 18.6477 362.961 18.7154 365.123 19.4169C366.834 19.9721 368.347 20.8762 369.505 22.0041L374.898 5.38266C375.123 4.68844 375.709 4.17212 376.426 4.03541C377.143 3.89881 377.877 4.1634 378.342 4.72608L376.801 5.99995L378.343 4.72731L378.344 4.72884ZM358.315 24.3044C358.174 24.7379 358.233 25.4292 358.898 26.2882C359.555 27.1376 360.693 27.967 362.19 28.4531C363.688 28.9391 365.096 28.9354 366.127 28.6338C367.169 28.3287 367.623 27.8038 367.764 27.3703C367.904 26.9367 367.845 26.246 367.18 25.3873C366.523 24.538 365.386 23.7077 363.888 23.2216C362.39 22.7355 360.982 22.7402 359.952 23.0418C358.909 23.3467 358.456 23.8709 358.315 24.3044Z" fill="#43D7D2"/>
<path d="M399.203 20.7926C399.749 20.3939 400.459 20.2977 401.091 20.5372C401.724 20.7768 402.191 21.3199 402.336 21.9803L403.68 28.1211C403.683 28.135 403.686 28.1491 403.689 28.163L407.752 46.7275C407.762 46.7727 407.768 46.8184 407.775 46.8635C407.789 46.9212 407.807 46.9788 407.82 47.0376C408.283 49.1547 407.395 51.1266 406.046 52.5553C404.687 53.993 402.724 55.0627 400.504 55.5486C398.284 56.0344 396.053 55.8826 394.219 55.1436C392.396 54.4092 390.765 52.9886 390.302 50.8715C389.839 48.7542 390.727 46.7817 392.076 45.3529C393.434 43.9152 395.397 42.8467 397.617 42.3607C399.374 41.9762 401.138 41.9915 402.706 42.3806L400.438 32.0194L384.964 43.3245L388.206 58.137C388.224 58.2164 388.235 58.296 388.242 58.375C388.28 58.4992 388.313 58.6263 388.342 58.7561C388.791 60.8084 387.898 62.7004 386.595 64.0507C385.281 65.413 383.393 66.4239 381.268 66.8892C379.142 67.3545 377.003 67.2249 375.24 66.5359C373.493 65.853 371.891 64.5069 371.442 62.4548C370.993 60.4025 371.886 58.5104 373.188 57.1601C374.502 55.7977 376.391 54.7857 378.517 54.3205C380.153 53.9625 381.796 53.9584 383.269 54.289L379.424 36.7195C379.255 35.9455 379.559 35.1441 380.199 34.6766L399.203 20.7926ZM383.61 37.1379L384.03 39.0545L399.504 27.7494L399.084 25.8329L383.61 37.1379ZM375.349 61.5996C375.424 61.939 375.75 62.4402 376.697 62.8101C377.628 63.1739 378.951 63.3016 380.412 62.9817C381.874 62.6617 383.022 61.9934 383.716 61.2739C384.422 60.5424 384.508 59.9508 384.434 59.6113C384.36 59.2719 384.034 58.7705 383.088 58.4005C382.156 58.0366 380.834 57.9081 379.372 58.228C377.91 58.5479 376.762 59.2172 376.068 59.9367C375.362 60.6684 375.275 61.2601 375.349 61.5996ZM394.209 50.0163C394.307 50.4615 394.707 51.0276 395.714 51.4334C396.71 51.8346 398.11 51.9776 399.648 51.6411C401.187 51.3044 402.4 50.5896 403.137 49.8089C403.883 49.0194 404.01 48.338 403.912 47.8928C403.815 47.4475 403.415 46.8806 402.407 46.4747C401.411 46.0735 400.011 45.9316 398.473 46.2682C396.934 46.6049 395.722 47.3187 394.985 48.0993C394.239 48.8889 394.112 49.571 394.209 50.0163Z" fill="#43D7D2"/>
<path d="M341.51 149.389C342.614 149.389 343.51 150.285 343.51 151.389C343.51 152.494 342.614 153.389 341.51 153.389H130.454L135.51 155.918C136.498 156.412 136.898 157.612 136.404 158.6C135.91 159.588 134.709 159.989 133.722 159.495L121.299 153.284C120.311 152.79 119.91 151.588 120.404 150.6C120.677 150.054 121.167 149.689 121.717 149.554C121.96 149.448 122.228 149.39 122.51 149.389H341.51ZM341.51 142.389C342.614 142.389 343.51 143.285 343.51 144.389C343.51 145.494 342.614 146.389 341.51 146.389H122.51C121.405 146.389 120.51 145.494 120.51 144.389C120.51 143.285 121.405 142.39 122.51 142.389H341.51Z" fill="#43D7D2"/>
<path d="M354.006 40.3941C360.356 40.5809 364.957 46.6022 363.404 52.815L344.404 128.815L344.292 129.228C343.081 133.322 339.396 136.199 335.13 136.38L334.703 136.389V132.389C337.456 132.389 339.855 130.515 340.523 127.844L359.523 51.8443C360.47 48.0575 357.606 44.3894 353.703 44.3892H84.3178C81.5646 44.3892 79.1643 46.2631 78.4965 48.9341L59.4965 124.934C58.55 128.721 61.4145 132.389 65.3178 132.389V136.389L65.0141 136.384C58.7652 136.201 54.2098 130.366 55.5473 124.259L55.6167 123.963L74.6167 47.9634C75.7297 43.512 79.7293 40.3892 84.3178 40.3892H353.703L354.006 40.3941ZM334.703 132.389V136.389H65.3178V132.389H334.703Z" fill="#FF7A86"/>
</g>
<defs>
<filter id="filter0_dd_20_107" x="0" y="0" width="411.944" height="177.46" filterUnits="userSpaceOnUse" color-interpolation-filters="sRGB">
<feFlood flood-opacity="0" result="BackgroundImageFix"/>
<feColorMatrix in="SourceAlpha" type="matrix" values="0 0 0 0 0 0 0 0 0 0 0 0 0 0 0 0 0 0 127 0" result="hardAlpha"/>
<feOffset dy="4"/>
<feGaussianBlur stdDeviation="2"/>
<feComposite in2="hardAlpha" operator="out"/>
<feColorMatrix type="matrix" values="0 0 0 0 0 0 0 0 0 0 0 0 0 0 0 0 0 0 0.25 0"/>
<feBlend mode="normal" in2="BackgroundImageFix" result="effect1_dropShadow_20_107"/>
<feColorMatrix in="SourceAlpha" type="matrix" values="0 0 0 0 0 0 0 0 0 0 0 0 0 0 0 0 0 0 127 0" result="hardAlpha"/>
<feOffset/>
<feGaussianBlur stdDeviation="2"/>
<feComposite in2="hardAlpha" operator="out"/>
<feColorMatrix type="matrix" values="0 0 0 0 1 0 0 0 0 1 0 0 0 0 1 0 0 0 1 0"/>
<feBlend mode="normal" in2="effect1_dropShadow_20_107" result="effect2_dropShadow_20_107"/>
<feBlend mode="normal" in="SourceGraphic" in2="effect2_dropShadow_20_107" result="shape"/>
</filter>
</defs>
</svg>
