<svg width="131" height="130" viewBox="0 0 131 130" fill="none" xmlns="http://www.w3.org/2000/svg">
<g filter="url(#filter0_d_1_53)">
<path d="M93.304 101.726C96.8041 102.226 99.304 98.7263 99.304 95.2264C99.304 91.7264 95.804 88.2264 90.304 87.7264C84.8041 87.2264 79.304 93.2085 79.304 100.226C79.304 110.226 88.7874 115.726 96.3041 115.726C110.804 115.726 116.804 103.226 117.804 92.7264C119.198 78.0908 108.304 65.7264 95.3041 59.2264C85.0084 54.0786 73.3041 49.2264 63.3041 39.2264C53.3041 29.2264 44.3041 10.2264 29.804 12.7264C15.304 15.2264 11.2735 30.7264 12.804 43.2264C14.0546 53.4399 25.3041 65.2264 25.3041 65.2264C25.3041 65.2264 14.8041 76.7264 19.304 89.2264C23.804 101.726 41.804 101.726 41.804 101.726C41.804 101.726 43.3041 113.7 54.8041 116.726C66.3041 119.753 71.8041 112.226 71.8041 112.226" stroke="#FFFEFA" stroke-width="5" stroke-linecap="round" stroke-linejoin="round"/>
</g>
<defs>
<filter id="filter0_d_1_53" x="0" y="0" width="130.426" height="129.944" filterUnits="userSpaceOnUse" color-interpolation-filters="sRGB">
<feFlood flood-opacity="0" result="BackgroundImageFix"/>
<feColorMatrix in="SourceAlpha" type="matrix" values="0 0 0 0 0 0 0 0 0 0 0 0 0 0 0 0 0 0 127 0" result="hardAlpha"/>
<feOffset/>
<feGaussianBlur stdDeviation="5"/>
<feColorMatrix type="matrix" values="0 0 0 0 0.682353 0 0 0 0 0.909804 0 0 0 0 0.901961 0 0 0 1 0"/>
<feBlend mode="normal" in2="BackgroundImageFix" result="effect1_dropShadow_1_53"/>
<feBlend mode="normal" in="SourceGraphic" in2="effect1_dropShadow_1_53" result="shape"/>
</filter>
</defs>
</svg>
